<svg width="400" height="280" viewBox="0 0 400 280" fill="none" xmlns="http://www.w3.org/2000/svg">
<g clip-path="url(#clip0_2_3)">
<path d="M30 200V195" stroke="black" stroke-width="2" stroke-linecap="square"/>
<path d="M30 95H33L30 100L27 95H30Z" fill="black" stroke="black" stroke-width="2" stroke-linecap="square"/>
<path d="M130 140H160" stroke="black" stroke-width="2" stroke-linecap="square"/>
<path d="M130 50V140" stroke="black" stroke-width="2" stroke-linecap="square"/>
<path d="M30 50V130" stroke="black" stroke-width="2" stroke-linecap="square"/>
<path d="M30 160V230" stroke="black" stroke-width="2" stroke-linecap="square"/>
<path d="M30 230H130" stroke="black" stroke-width="2" stroke-linecap="square"/>
<path d="M130 160V230" stroke="black" stroke-width="2" stroke-linecap="square"/>
<path d="M130 160H160" stroke="black" stroke-width="2" stroke-linecap="square"/>
<path d="M325 55H205V250H325V55Z" stroke="black" stroke-width="2"/>
<path d="M242.297 85H241.281L244.219 77H245.219L248.156 85H247.141L244.75 78.2656H244.688L242.297 85ZM242.672 81.875H246.766V82.7344H242.672V81.875ZM249.402 85V77H252.105C252.73 77 253.243 77.1068 253.645 77.3203C254.046 77.5312 254.342 77.8216 254.535 78.1914C254.728 78.5612 254.824 78.9818 254.824 79.4531C254.824 79.9245 254.728 80.3424 254.535 80.707C254.342 81.0716 254.047 81.3581 253.648 81.5664C253.25 81.7721 252.741 81.875 252.121 81.875H249.934V81H252.09C252.517 81 252.861 80.9375 253.121 80.8125C253.384 80.6875 253.574 80.5104 253.691 80.2812C253.811 80.0495 253.871 79.7734 253.871 79.4531C253.871 79.1328 253.811 78.8529 253.691 78.6133C253.572 78.3737 253.38 78.1888 253.117 78.0586C252.854 77.9258 252.507 77.8594 252.074 77.8594H250.371V85H249.402ZM253.168 81.4062L255.137 85H254.012L252.074 81.4062H253.168ZM258.907 85H256.438V77H259.017C259.793 77 260.457 77.1602 261.009 77.4805C261.561 77.7982 261.984 78.2552 262.278 78.8516C262.573 79.4453 262.72 80.1562 262.72 80.9844C262.72 81.8177 262.571 82.5352 262.274 83.1367C261.978 83.7357 261.545 84.1966 260.978 84.5195C260.41 84.8398 259.72 85 258.907 85ZM257.407 84.1406H258.845C259.506 84.1406 260.054 84.013 260.489 83.7578C260.924 83.5026 261.248 83.1393 261.462 82.668C261.675 82.1966 261.782 81.6354 261.782 80.9844C261.782 80.3385 261.677 79.7826 261.466 79.3164C261.255 78.8477 260.94 78.4883 260.521 78.2383C260.101 77.9857 259.579 77.8594 258.954 77.8594H257.407V84.1406ZM269.595 77H270.563V82.2969C270.563 82.8437 270.435 83.332 270.177 83.7617C269.922 84.1888 269.561 84.526 269.095 84.7734C268.629 85.0182 268.082 85.1406 267.454 85.1406C266.826 85.1406 266.28 85.0182 265.813 84.7734C265.347 84.526 264.985 84.1888 264.728 83.7617C264.472 83.332 264.345 82.8437 264.345 82.2969V77H265.313V82.2188C265.313 82.6094 265.399 82.957 265.571 83.2617C265.743 83.5638 265.988 83.8021 266.306 83.9766C266.626 84.1484 267.009 84.2344 267.454 84.2344C267.899 84.2344 268.282 84.1484 268.603 83.9766C268.923 83.8021 269.168 83.5638 269.337 83.2617C269.509 82.957 269.595 82.6094 269.595 82.2188V77ZM273.467 77V85H272.498V77H273.467ZM281.753 77V85H280.815L276.456 78.7187H276.378V85H275.409V77H276.347L280.722 83.2969H280.8V77H281.753ZM290.441 81C290.441 81.8437 290.289 82.5729 289.984 83.1875C289.68 83.8021 289.262 84.276 288.73 84.6094C288.199 84.9427 287.592 85.1094 286.91 85.1094C286.228 85.1094 285.621 84.9427 285.09 84.6094C284.559 84.276 284.141 83.8021 283.836 83.1875C283.531 82.5729 283.379 81.8437 283.379 81C283.379 80.1562 283.531 79.4271 283.836 78.8125C284.141 78.1979 284.559 77.724 285.09 77.3906C285.621 77.0573 286.228 76.8906 286.91 76.8906C287.592 76.8906 288.199 77.0573 288.73 77.3906C289.262 77.724 289.68 78.1979 289.984 78.8125C290.289 79.4271 290.441 80.1562 290.441 81ZM289.504 81C289.504 80.3073 289.388 79.7227 289.156 79.2461C288.927 78.7695 288.616 78.4089 288.223 78.1641C287.832 77.9193 287.395 77.7969 286.91 77.7969C286.426 77.7969 285.987 77.9193 285.594 78.1641C285.203 78.4089 284.892 78.7695 284.66 79.2461C284.431 79.7227 284.316 80.3073 284.316 81C284.316 81.6927 284.431 82.2773 284.66 82.7539C284.892 83.2305 285.203 83.5911 285.594 83.8359C285.987 84.0807 286.426 84.2031 286.91 84.2031C287.395 84.2031 287.832 84.0807 288.223 83.8359C288.616 83.5911 288.927 83.2305 289.156 82.7539C289.388 82.2773 289.504 81.6927 289.504 81Z" fill="black"/>
<path d="M254.219 87H255.188V92.2969C255.188 92.8437 255.059 93.332 254.801 93.7617C254.546 94.1888 254.185 94.526 253.719 94.7734C253.253 95.0182 252.706 95.1406 252.078 95.1406C251.451 95.1406 250.904 95.0182 250.438 94.7734C249.971 94.526 249.609 94.1888 249.352 93.7617C249.096 93.332 248.969 92.8437 248.969 92.2969V87H249.938V92.2188C249.938 92.6094 250.023 92.957 250.195 93.2617C250.367 93.5638 250.612 93.8021 250.93 93.9766C251.25 94.1484 251.633 94.2344 252.078 94.2344C252.523 94.2344 252.906 94.1484 253.227 93.9766C253.547 93.8021 253.792 93.5638 253.961 93.2617C254.133 92.957 254.219 92.6094 254.219 92.2188V87ZM263.466 87V95H262.528L258.169 88.7187H258.091V95H257.122V87H258.06L262.435 93.2969H262.513V87H263.466ZM272.154 91C272.154 91.8437 272.002 92.5729 271.697 93.1875C271.393 93.8021 270.975 94.276 270.443 94.6094C269.912 94.9427 269.305 95.1094 268.623 95.1094C267.941 95.1094 267.334 94.9427 266.803 94.6094C266.271 94.276 265.854 93.8021 265.549 93.1875C265.244 92.5729 265.092 91.8437 265.092 91C265.092 90.1562 265.244 89.4271 265.549 88.8125C265.854 88.1979 266.271 87.724 266.803 87.3906C267.334 87.0573 267.941 86.8906 268.623 86.8906C269.305 86.8906 269.912 87.0573 270.443 87.3906C270.975 87.724 271.393 88.1979 271.697 88.8125C272.002 89.4271 272.154 90.1562 272.154 91ZM271.217 91C271.217 90.3073 271.101 89.7227 270.869 89.2461C270.64 88.7695 270.329 88.4089 269.936 88.1641C269.545 87.9193 269.107 87.7969 268.623 87.7969C268.139 87.7969 267.7 87.9193 267.307 88.1641C266.916 88.4089 266.605 88.7695 266.373 89.2461C266.144 89.7227 266.029 90.3073 266.029 91C266.029 91.6927 266.144 92.2773 266.373 92.7539C266.605 93.2305 266.916 93.5911 267.307 93.8359C267.7 94.0807 268.139 94.2031 268.623 94.2031C269.107 94.2031 269.545 94.0807 269.936 93.8359C270.329 93.5911 270.64 93.2305 270.869 92.7539C271.101 92.2773 271.217 91.6927 271.217 91ZM276.752 95V89H277.643V89.9062H277.705C277.814 89.6094 278.012 89.3685 278.299 89.1836C278.585 88.9987 278.908 88.9062 279.268 88.9062C279.335 88.9062 279.42 88.9076 279.521 88.9102C279.623 88.9128 279.7 88.9167 279.752 88.9219V89.8594C279.721 89.8516 279.649 89.8398 279.537 89.8242C279.428 89.806 279.312 89.7969 279.189 89.7969C278.898 89.7969 278.637 89.8581 278.408 89.9805C278.182 90.1003 278.002 90.2669 277.869 90.4805C277.739 90.6914 277.674 90.9323 277.674 91.2031V95H276.752ZM283.532 95.1094C283.017 95.1094 282.557 95.0208 282.153 94.8437C281.752 94.6667 281.433 94.4206 281.196 94.1055C280.962 93.7878 280.834 93.4193 280.813 93H281.798C281.819 93.2578 281.907 93.4805 282.063 93.668C282.22 93.8529 282.424 93.9961 282.677 94.0977C282.929 94.1992 283.209 94.25 283.517 94.25C283.86 94.25 284.165 94.1901 284.431 94.0703C284.696 93.9505 284.905 93.7839 285.056 93.5703C285.207 93.3568 285.282 93.1094 285.282 92.8281C285.282 92.5339 285.209 92.2747 285.063 92.0508C284.918 91.8242 284.704 91.6471 284.423 91.5195C284.142 91.3919 283.798 91.3281 283.392 91.3281H282.751V90.4687H283.392C283.709 90.4687 283.988 90.4115 284.228 90.2969C284.47 90.1823 284.659 90.0208 284.794 89.8125C284.932 89.6042 285.001 89.3594 285.001 89.0781C285.001 88.8073 284.941 88.5716 284.821 88.3711C284.701 88.1706 284.532 88.0143 284.313 87.9023C284.097 87.7904 283.842 87.7344 283.548 87.7344C283.272 87.7344 283.011 87.7852 282.767 87.8867C282.524 87.9857 282.326 88.1302 282.173 88.3203C282.019 88.5078 281.936 88.7344 281.923 89H280.985C281.001 88.5807 281.127 88.2135 281.364 87.8984C281.601 87.5807 281.911 87.3333 282.294 87.1562C282.679 86.9792 283.103 86.8906 283.563 86.8906C284.058 86.8906 284.483 86.9909 284.837 87.1914C285.191 87.3893 285.463 87.651 285.653 87.9766C285.843 88.3021 285.938 88.6536 285.938 89.0313C285.938 89.4818 285.82 89.8659 285.583 90.1836C285.349 90.5013 285.03 90.7214 284.626 90.8438V90.9062C285.131 90.9896 285.526 91.2044 285.81 91.5508C286.093 91.8945 286.235 92.3203 286.235 92.8281C286.235 93.263 286.117 93.6536 285.88 94C285.646 94.3437 285.325 94.6146 284.919 94.8125C284.513 95.0104 284.05 95.1094 283.532 95.1094Z" fill="black"/>
<path d="M160 110H205" stroke="black" stroke-width="2" stroke-linecap="square"/>
<path d="M160 120H205" stroke="black" stroke-width="2" stroke-linecap="square"/>
<path d="M160 130H205" stroke="black" stroke-width="2" stroke-linecap="square"/>
<path d="M160 140H205" stroke="black" stroke-width="2" stroke-linecap="square"/>
<path d="M160 150H205" stroke="black" stroke-width="2" stroke-linecap="square"/>
<path d="M160 160H205" stroke="black" stroke-width="2" stroke-linecap="square"/>
<path d="M160 170H205" stroke="black" stroke-width="2" stroke-linecap="square"/>
<path d="M160 190H205" stroke="black" stroke-width="2" stroke-linecap="square"/>
<path d="M160 200H205" stroke="black" stroke-width="2" stroke-linecap="square"/>
<path d="M160 210H205" stroke="black" stroke-width="2" stroke-linecap="square"/>
<path d="M160 220H205" stroke="black" stroke-width="2" stroke-linecap="square"/>
<path d="M160 230H205" stroke="black" stroke-width="2" stroke-linecap="square"/>
<path d="M160 240H205" stroke="black" stroke-width="2" stroke-linecap="square"/>
<path d="M325 80H370" stroke="black" stroke-width="2" stroke-linecap="square"/>
<path d="M325 90H370" stroke="black" stroke-width="2" stroke-linecap="square"/>
<path d="M325 100H370" stroke="black" stroke-width="2" stroke-linecap="square"/>
<path d="M325 110H370" stroke="black" stroke-width="2" stroke-linecap="square"/>
<path d="M325 120H370" stroke="black" stroke-width="2" stroke-linecap="square"/>
<path d="M325 130H370" stroke="black" stroke-width="2" stroke-linecap="square"/>
<path d="M325 140H370" stroke="black" stroke-width="2" stroke-linecap="square"/>
<path d="M325 150H370" stroke="black" stroke-width="2" stroke-linecap="square"/>
<path d="M325 170H370" stroke="black" stroke-width="2" stroke-linecap="square"/>
<path d="M325 180H370" stroke="black" stroke-width="2" stroke-linecap="square"/>
<path d="M325 190H370" stroke="black" stroke-width="2" stroke-linecap="square"/>
<path d="M325 200H370" stroke="black" stroke-width="2" stroke-linecap="square"/>
<path d="M325 210H370" stroke="black" stroke-width="2" stroke-linecap="square"/>
<path d="M325 220H370" stroke="black" stroke-width="2" stroke-linecap="square"/>
<path d="M325 230H370" stroke="black" stroke-width="2" stroke-linecap="square"/>
<path d="M325 240H370" stroke="black" stroke-width="2" stroke-linecap="square"/>
<path d="M210.938 102V110H209.969V102H210.938ZM219.63 106C219.63 106.844 219.478 107.573 219.173 108.187C218.868 108.802 218.45 109.276 217.919 109.609C217.388 109.943 216.781 110.109 216.099 110.109C215.416 110.109 214.81 109.943 214.278 109.609C213.747 109.276 213.329 108.802 213.024 108.187C212.72 107.573 212.567 106.844 212.567 106C212.567 105.156 212.72 104.427 213.024 103.812C213.329 103.198 213.747 102.724 214.278 102.391C214.81 102.057 215.416 101.891 216.099 101.891C216.781 101.891 217.388 102.057 217.919 102.391C218.45 102.724 218.868 103.198 219.173 103.812C219.478 104.427 219.63 105.156 219.63 106ZM218.692 106C218.692 105.307 218.576 104.723 218.345 104.246C218.116 103.77 217.804 103.409 217.411 103.164C217.021 102.919 216.583 102.797 216.099 102.797C215.614 102.797 215.175 102.919 214.782 103.164C214.392 103.409 214.08 103.77 213.849 104.246C213.619 104.723 213.505 105.307 213.505 106C213.505 106.693 213.619 107.277 213.849 107.754C214.08 108.23 214.392 108.591 214.782 108.836C215.175 109.081 215.614 109.203 216.099 109.203C216.583 109.203 217.021 109.081 217.411 108.836C217.804 108.591 218.116 108.23 218.345 107.754C218.576 107.277 218.692 106.693 218.692 106ZM221.259 110V102H223.962C224.587 102 225.1 102.107 225.501 102.32C225.902 102.531 226.199 102.822 226.392 103.191C226.584 103.561 226.681 103.982 226.681 104.453C226.681 104.924 226.584 105.342 226.392 105.707C226.199 106.072 225.903 106.358 225.505 106.566C225.106 106.772 224.597 106.875 223.978 106.875H221.79V106H223.946C224.373 106 224.717 105.937 224.978 105.812C225.241 105.687 225.431 105.51 225.548 105.281C225.668 105.049 225.728 104.773 225.728 104.453C225.728 104.133 225.668 103.853 225.548 103.613C225.428 103.374 225.237 103.189 224.974 103.059C224.711 102.926 224.363 102.859 223.931 102.859H222.228V110H221.259ZM225.024 106.406L226.993 110H225.868L223.931 106.406H225.024ZM228.295 110V102H233.123V102.859H229.264V105.562H232.873V106.422H229.264V109.141H233.186V110H228.295ZM234.869 110V102H239.666V102.859H235.838V105.562H239.307V106.422H235.838V110H234.869Z" fill="black"/>
<path d="M209.969 120V112H212.672C213.297 112 213.81 112.107 214.211 112.32C214.612 112.531 214.909 112.822 215.102 113.191C215.294 113.561 215.391 113.982 215.391 114.453C215.391 114.924 215.294 115.342 215.102 115.707C214.909 116.072 214.613 116.358 214.215 116.566C213.816 116.772 213.307 116.875 212.688 116.875H210.5V116H212.656C213.083 116 213.427 115.937 213.688 115.812C213.951 115.687 214.141 115.51 214.258 115.281C214.378 115.049 214.438 114.773 214.438 114.453C214.438 114.133 214.378 113.853 214.258 113.613C214.138 113.374 213.947 113.189 213.684 113.059C213.421 112.926 213.073 112.859 212.641 112.859H210.938V120H209.969ZM213.734 116.406L215.703 120H214.578L212.641 116.406H213.734ZM217.005 120V112H221.833V112.859H217.974V115.562H221.583V116.422H217.974V119.141H221.896V120H217.005ZM227.954 114C227.907 113.604 227.717 113.297 227.384 113.078C227.05 112.859 226.642 112.75 226.157 112.75C225.803 112.75 225.493 112.807 225.228 112.922C224.965 113.036 224.759 113.194 224.61 113.395C224.465 113.595 224.392 113.823 224.392 114.078C224.392 114.292 224.442 114.475 224.544 114.629C224.648 114.78 224.781 114.906 224.942 115.008C225.104 115.107 225.273 115.189 225.45 115.254C225.627 115.316 225.79 115.367 225.938 115.406L226.751 115.625C226.959 115.68 227.191 115.755 227.446 115.852C227.704 115.948 227.95 116.079 228.185 116.246C228.422 116.41 228.617 116.621 228.771 116.879C228.924 117.137 229.001 117.453 229.001 117.828C229.001 118.26 228.888 118.651 228.661 119C228.437 119.349 228.109 119.626 227.677 119.832C227.247 120.038 226.725 120.141 226.11 120.141C225.537 120.141 225.041 120.048 224.622 119.863C224.205 119.678 223.877 119.421 223.638 119.09C223.401 118.759 223.267 118.375 223.235 117.938H224.235C224.261 118.24 224.363 118.49 224.54 118.687C224.72 118.883 224.946 119.029 225.22 119.125C225.496 119.219 225.793 119.266 226.11 119.266C226.48 119.266 226.812 119.206 227.106 119.086C227.401 118.964 227.634 118.794 227.806 118.578C227.978 118.359 228.063 118.104 228.063 117.812C228.063 117.547 227.989 117.331 227.841 117.164C227.692 116.997 227.497 116.862 227.255 116.758C227.013 116.654 226.751 116.562 226.47 116.484L225.485 116.203C224.86 116.023 224.366 115.767 224.001 115.434C223.636 115.1 223.454 114.664 223.454 114.125C223.454 113.677 223.575 113.286 223.817 112.953C224.062 112.617 224.39 112.357 224.802 112.172C225.216 111.984 225.678 111.891 226.188 111.891C226.704 111.891 227.162 111.983 227.563 112.168C227.965 112.35 228.282 112.6 228.517 112.918C228.754 113.236 228.879 113.596 228.892 114H227.954ZM230.594 120V112H235.422V112.859H231.563V115.562H235.172V116.422H231.563V119.141H235.484V120H230.594ZM236.73 112.859V112H242.73V112.859H240.215V120H239.246V112.859H236.73Z" fill="black"/>
<path d="M212.531 130.109C212.016 130.109 211.556 130.021 211.152 129.844C210.751 129.667 210.432 129.421 210.195 129.105C209.961 128.788 209.833 128.419 209.813 128H210.797C210.818 128.258 210.906 128.48 211.062 128.668C211.219 128.853 211.423 128.996 211.676 129.098C211.928 129.199 212.208 129.25 212.516 129.25C212.859 129.25 213.164 129.19 213.43 129.07C213.695 128.951 213.904 128.784 214.055 128.57C214.206 128.357 214.281 128.109 214.281 127.828C214.281 127.534 214.208 127.275 214.063 127.051C213.917 126.824 213.703 126.647 213.422 126.52C213.141 126.392 212.797 126.328 212.391 126.328H211.75V125.469H212.391C212.708 125.469 212.987 125.411 213.227 125.297C213.469 125.182 213.658 125.021 213.793 124.812C213.931 124.604 214 124.359 214 124.078C214 123.807 213.94 123.572 213.82 123.371C213.701 123.171 213.531 123.014 213.313 122.902C213.096 122.79 212.841 122.734 212.547 122.734C212.271 122.734 212.01 122.785 211.766 122.887C211.523 122.986 211.326 123.13 211.172 123.32C211.018 123.508 210.935 123.734 210.922 124H209.984C210 123.581 210.126 123.214 210.363 122.898C210.6 122.581 210.91 122.333 211.293 122.156C211.678 121.979 212.102 121.891 212.563 121.891C213.057 121.891 213.482 121.991 213.836 122.191C214.19 122.389 214.462 122.651 214.652 122.977C214.842 123.302 214.938 123.654 214.938 124.031C214.938 124.482 214.819 124.866 214.582 125.184C214.348 125.501 214.029 125.721 213.625 125.844V125.906C214.13 125.99 214.525 126.204 214.809 126.551C215.092 126.895 215.234 127.32 215.234 127.828C215.234 128.263 215.116 128.654 214.879 129C214.645 129.344 214.324 129.615 213.918 129.812C213.512 130.01 213.049 130.109 212.531 130.109ZM217.272 130.063C217.08 130.063 216.914 129.993 216.776 129.855C216.638 129.717 216.569 129.552 216.569 129.359C216.569 129.167 216.638 129.001 216.776 128.863C216.914 128.725 217.08 128.656 217.272 128.656C217.465 128.656 217.631 128.725 217.769 128.863C217.907 129.001 217.976 129.167 217.976 129.359C217.976 129.487 217.943 129.604 217.878 129.711C217.815 129.818 217.731 129.904 217.624 129.969C217.52 130.031 217.403 130.063 217.272 130.063ZM222.017 130.109C221.501 130.109 221.041 130.021 220.638 129.844C220.237 129.667 219.918 129.421 219.681 129.105C219.446 128.788 219.319 128.419 219.298 128H220.282C220.303 128.258 220.392 128.48 220.548 128.668C220.704 128.853 220.909 128.996 221.161 129.098C221.414 129.199 221.694 129.25 222.001 129.25C222.345 129.25 222.649 129.19 222.915 129.07C223.181 128.951 223.389 128.784 223.54 128.57C223.691 128.357 223.767 128.109 223.767 127.828C223.767 127.534 223.694 127.275 223.548 127.051C223.402 126.824 223.188 126.647 222.907 126.52C222.626 126.392 222.282 126.328 221.876 126.328H221.235V125.469H221.876C222.194 125.469 222.472 125.411 222.712 125.297C222.954 125.182 223.143 125.021 223.278 124.812C223.416 124.604 223.485 124.359 223.485 124.078C223.485 123.807 223.425 123.572 223.306 123.371C223.186 123.171 223.017 123.014 222.798 122.902C222.582 122.79 222.326 122.734 222.032 122.734C221.756 122.734 221.496 122.785 221.251 122.887C221.009 122.986 220.811 123.13 220.657 123.32C220.504 123.508 220.42 123.734 220.407 124H219.47C219.485 123.581 219.612 123.214 219.849 122.898C220.086 122.581 220.396 122.333 220.778 122.156C221.164 121.979 221.587 121.891 222.048 121.891C222.543 121.891 222.967 121.991 223.321 122.191C223.675 122.389 223.948 122.651 224.138 122.977C224.328 123.302 224.423 123.654 224.423 124.031C224.423 124.482 224.304 124.866 224.067 125.184C223.833 125.501 223.514 125.721 223.11 125.844V125.906C223.616 125.99 224.01 126.204 224.294 126.551C224.578 126.895 224.72 127.32 224.72 127.828C224.72 128.263 224.601 128.654 224.364 129C224.13 129.344 223.81 129.615 223.403 129.812C222.997 130.01 222.535 130.109 222.017 130.109ZM226.786 122L229.161 128.734H229.255L231.63 122H232.646L229.708 130H228.708L225.771 122H226.786Z" fill="black"/>
<path d="M212.328 140.109C211.87 140.109 211.457 140.018 211.09 139.836C210.723 139.654 210.428 139.404 210.207 139.086C209.986 138.768 209.865 138.406 209.844 138H210.781C210.818 138.362 210.982 138.661 211.273 138.898C211.568 139.133 211.919 139.25 212.328 139.25C212.656 139.25 212.948 139.173 213.203 139.02C213.461 138.866 213.663 138.655 213.809 138.387C213.957 138.116 214.031 137.81 214.031 137.469C214.031 137.12 213.954 136.809 213.801 136.535C213.65 136.259 213.441 136.042 213.176 135.883C212.91 135.724 212.607 135.643 212.266 135.641C212.021 135.638 211.77 135.676 211.512 135.754C211.254 135.829 211.042 135.927 210.875 136.047L209.969 135.937L210.453 132H214.609V132.859H211.266L210.984 135.219H211.031C211.195 135.089 211.401 134.98 211.648 134.895C211.896 134.809 212.154 134.766 212.422 134.766C212.911 134.766 213.348 134.883 213.73 135.117C214.116 135.349 214.418 135.667 214.637 136.07C214.858 136.474 214.969 136.935 214.969 137.453C214.969 137.964 214.854 138.419 214.625 138.82C214.398 139.219 214.086 139.534 213.688 139.766C213.289 139.995 212.836 140.109 212.328 140.109ZM216.989 132L219.364 138.734H219.458L221.833 132H222.849L219.911 140H218.911L215.974 132H216.989Z" fill="black"/>
<path d="M215.438 144.5C215.352 144.237 215.238 144.001 215.098 143.793C214.96 143.582 214.794 143.402 214.602 143.254C214.411 143.105 214.195 142.992 213.953 142.914C213.711 142.836 213.445 142.797 213.156 142.797C212.682 142.797 212.251 142.919 211.863 143.164C211.475 143.409 211.167 143.77 210.938 144.246C210.708 144.723 210.594 145.307 210.594 146C210.594 146.693 210.71 147.277 210.941 147.754C211.173 148.23 211.487 148.591 211.883 148.836C212.279 149.081 212.724 149.203 213.219 149.203C213.677 149.203 214.081 149.105 214.43 148.91C214.781 148.712 215.055 148.434 215.25 148.074C215.448 147.712 215.547 147.286 215.547 146.797L215.844 146.859H213.438V146H216.484V146.859C216.484 147.518 216.344 148.091 216.063 148.578C215.784 149.065 215.398 149.443 214.906 149.711C214.417 149.977 213.854 150.109 213.219 150.109C212.51 150.109 211.888 149.943 211.352 149.609C210.818 149.276 210.401 148.802 210.102 148.187C209.805 147.573 209.656 146.844 209.656 146C209.656 145.367 209.741 144.798 209.91 144.293C210.082 143.785 210.324 143.353 210.637 142.996C210.949 142.639 211.319 142.366 211.746 142.176C212.173 141.986 212.643 141.891 213.156 141.891C213.578 141.891 213.971 141.954 214.336 142.082C214.703 142.207 215.03 142.385 215.316 142.617C215.605 142.846 215.846 143.121 216.039 143.441C216.232 143.759 216.365 144.112 216.438 144.5H215.438ZM224.487 142V150H223.55L219.19 143.719H219.112V150H218.144V142H219.081L223.456 148.297H223.534V142H224.487ZM228.895 150H226.426V142H229.004C229.78 142 230.444 142.16 230.996 142.48C231.548 142.798 231.971 143.255 232.266 143.852C232.56 144.445 232.707 145.156 232.707 145.984C232.707 146.818 232.559 147.535 232.262 148.137C231.965 148.736 231.533 149.197 230.965 149.52C230.397 149.84 229.707 150 228.895 150ZM227.395 149.141H228.832C229.493 149.141 230.042 149.013 230.477 148.758C230.911 148.503 231.236 148.139 231.449 147.668C231.663 147.197 231.77 146.635 231.77 145.984C231.77 145.339 231.664 144.783 231.453 144.316C231.242 143.848 230.927 143.488 230.508 143.238C230.089 142.986 229.566 142.859 228.941 142.859H227.395V149.141Z" fill="black"/>
<path d="M215.438 154.5C215.352 154.237 215.238 154.001 215.098 153.793C214.96 153.582 214.794 153.402 214.602 153.254C214.411 153.105 214.195 152.992 213.953 152.914C213.711 152.836 213.445 152.797 213.156 152.797C212.682 152.797 212.251 152.919 211.863 153.164C211.475 153.409 211.167 153.77 210.938 154.246C210.708 154.723 210.594 155.307 210.594 156C210.594 156.693 210.71 157.277 210.941 157.754C211.173 158.23 211.487 158.591 211.883 158.836C212.279 159.081 212.724 159.203 213.219 159.203C213.677 159.203 214.081 159.105 214.43 158.91C214.781 158.712 215.055 158.434 215.25 158.074C215.448 157.712 215.547 157.286 215.547 156.797L215.844 156.859H213.438V156H216.484V156.859C216.484 157.518 216.344 158.091 216.063 158.578C215.784 159.065 215.398 159.443 214.906 159.711C214.417 159.977 213.854 160.109 213.219 160.109C212.51 160.109 211.888 159.943 211.352 159.609C210.818 159.276 210.401 158.802 210.102 158.187C209.805 157.573 209.656 156.844 209.656 156C209.656 155.367 209.741 154.798 209.91 154.293C210.082 153.785 210.324 153.353 210.637 152.996C210.949 152.639 211.319 152.366 211.746 152.176C212.173 151.986 212.643 151.891 213.156 151.891C213.578 151.891 213.971 151.954 214.336 152.082C214.703 152.207 215.03 152.385 215.316 152.617C215.605 152.846 215.846 153.121 216.039 153.441C216.232 153.759 216.365 154.112 216.438 154.5H215.438ZM224.487 152V160H223.55L219.19 153.719H219.112V160H218.144V152H219.081L223.456 158.297H223.534V152H224.487ZM228.895 160H226.426V152H229.004C229.78 152 230.444 152.16 230.996 152.48C231.548 152.798 231.971 153.255 232.266 153.852C232.56 154.445 232.707 155.156 232.707 155.984C232.707 156.818 232.559 157.535 232.262 158.137C231.965 158.736 231.533 159.197 230.965 159.52C230.397 159.84 229.707 160 228.895 160ZM227.395 159.141H228.832C229.493 159.141 230.042 159.013 230.477 158.758C230.911 158.503 231.236 158.139 231.449 157.668C231.663 157.197 231.77 156.635 231.77 155.984C231.77 155.339 231.664 154.783 231.453 154.316C231.242 153.848 230.927 153.488 230.508 153.238C230.089 152.986 229.566 152.859 228.941 152.859H227.395V159.141Z" fill="black"/>
<path d="M210.297 162L212.672 168.734H212.766L215.141 162H216.156L213.219 170H212.219L209.281 162H210.297ZM217.277 170V164H218.199V170H217.277ZM217.746 163C217.566 163 217.411 162.939 217.281 162.816C217.154 162.694 217.09 162.547 217.09 162.375C217.09 162.203 217.154 162.056 217.281 161.934C217.411 161.811 217.566 161.75 217.746 161.75C217.926 161.75 218.079 161.811 218.207 161.934C218.337 162.056 218.402 162.203 218.402 162.375C218.402 162.547 218.337 162.694 218.207 162.816C218.079 162.939 217.926 163 217.746 163ZM220.81 166.391V170H219.888V164H220.778V164.937H220.856C220.997 164.633 221.211 164.388 221.497 164.203C221.784 164.016 222.153 163.922 222.606 163.922C223.013 163.922 223.368 164.005 223.673 164.172C223.978 164.336 224.215 164.586 224.384 164.922C224.553 165.255 224.638 165.677 224.638 166.188V170H223.716V166.25C223.716 165.779 223.593 165.411 223.349 165.148C223.104 164.883 222.768 164.75 222.341 164.75C222.047 164.75 221.784 164.814 221.552 164.941C221.323 165.069 221.142 165.255 221.009 165.5C220.876 165.745 220.81 166.042 220.81 166.391Z" fill="black"/>
<path d="M210.297 190H209.281L212.219 182H213.219L216.156 190H215.141L212.75 183.266H212.688L210.297 190ZM210.672 186.875H214.766V187.734H210.672V186.875ZM219.871 190.109C219.283 190.109 218.781 189.949 218.367 189.629C217.953 189.306 217.637 188.839 217.418 188.227C217.199 187.612 217.09 186.87 217.09 186C217.09 185.135 217.199 184.397 217.418 183.785C217.639 183.171 217.957 182.702 218.371 182.379C218.788 182.053 219.288 181.891 219.871 181.891C220.454 181.891 220.953 182.053 221.367 182.379C221.784 182.702 222.102 183.171 222.32 183.785C222.542 184.397 222.652 185.135 222.652 186C222.652 186.87 222.543 187.612 222.324 188.227C222.105 188.839 221.789 189.306 221.375 189.629C220.961 189.949 220.46 190.109 219.871 190.109ZM219.871 189.25C220.454 189.25 220.908 188.969 221.23 188.406C221.553 187.844 221.715 187.042 221.715 186C221.715 185.307 221.641 184.717 221.492 184.23C221.346 183.743 221.135 183.372 220.859 183.117C220.586 182.862 220.257 182.734 219.871 182.734C219.293 182.734 218.841 183.02 218.516 183.59C218.19 184.158 218.027 184.961 218.027 186C218.027 186.693 218.1 187.281 218.246 187.766C218.392 188.25 218.602 188.618 218.875 188.871C219.151 189.124 219.483 189.25 219.871 189.25Z" fill="black"/>
<path d="M210.297 200H209.281L212.219 192H213.219L216.156 200H215.141L212.75 193.266H212.688L210.297 200ZM210.672 196.875H214.766V197.734H210.672V196.875ZM219.698 192V200H218.729V193.016H218.683L216.729 194.312V193.328L218.729 192H219.698Z" fill="black"/>
<path d="M210.297 210H209.281L212.219 202H213.219L216.156 210H215.141L212.75 203.266H212.688L210.297 210ZM210.672 206.875H214.766V207.734H210.672V206.875ZM217.262 210V209.297L219.902 206.406C220.212 206.068 220.467 205.773 220.668 205.523C220.868 205.271 221.017 205.034 221.113 204.812C221.212 204.589 221.262 204.354 221.262 204.109C221.262 203.828 221.194 203.585 221.059 203.379C220.926 203.173 220.743 203.014 220.512 202.902C220.28 202.79 220.02 202.734 219.73 202.734C219.423 202.734 219.155 202.798 218.926 202.926C218.699 203.051 218.523 203.227 218.398 203.453C218.276 203.68 218.215 203.945 218.215 204.25H217.293C217.293 203.781 217.401 203.37 217.617 203.016C217.833 202.661 218.128 202.385 218.5 202.187C218.875 201.99 219.296 201.891 219.762 201.891C220.23 201.891 220.646 201.99 221.008 202.187C221.37 202.385 221.654 202.652 221.859 202.988C222.065 203.324 222.168 203.698 222.168 204.109C222.168 204.404 222.115 204.691 222.008 204.973C221.904 205.251 221.721 205.562 221.461 205.906C221.203 206.247 220.845 206.664 220.387 207.156L218.59 209.078V209.141H222.309V210H217.262Z" fill="black"/>
<path d="M210.297 220H209.281L212.219 212H213.219L216.156 220H215.141L212.75 213.266H212.688L210.297 220ZM210.672 216.875H214.766V217.734H210.672V216.875ZM219.965 220.109C219.449 220.109 218.99 220.021 218.586 219.844C218.185 219.667 217.866 219.421 217.629 219.105C217.395 218.788 217.267 218.419 217.246 218H218.23C218.251 218.258 218.34 218.48 218.496 218.668C218.652 218.853 218.857 218.996 219.109 219.098C219.362 219.199 219.642 219.25 219.949 219.25C220.293 219.25 220.598 219.19 220.863 219.07C221.129 218.951 221.337 218.784 221.488 218.57C221.639 218.357 221.715 218.109 221.715 217.828C221.715 217.534 221.642 217.275 221.496 217.051C221.35 216.824 221.137 216.647 220.855 216.52C220.574 216.392 220.23 216.328 219.824 216.328H219.184V215.469H219.824C220.142 215.469 220.421 215.411 220.66 215.297C220.902 215.182 221.091 215.021 221.227 214.812C221.365 214.604 221.434 214.359 221.434 214.078C221.434 213.807 221.374 213.572 221.254 213.371C221.134 213.171 220.965 213.014 220.746 212.902C220.53 212.79 220.275 212.734 219.98 212.734C219.704 212.734 219.444 212.785 219.199 212.887C218.957 212.986 218.759 213.13 218.605 213.32C218.452 213.508 218.368 213.734 218.355 214H217.418C217.434 213.581 217.56 213.214 217.797 212.898C218.034 212.581 218.344 212.333 218.727 212.156C219.112 211.979 219.535 211.891 219.996 211.891C220.491 211.891 220.915 211.991 221.27 212.191C221.624 212.389 221.896 212.651 222.086 212.977C222.276 213.302 222.371 213.654 222.371 214.031C222.371 214.482 222.253 214.866 222.016 215.184C221.781 215.501 221.462 215.721 221.059 215.844V215.906C221.564 215.99 221.958 216.204 222.242 216.551C222.526 216.895 222.668 217.32 222.668 217.828C222.668 218.263 222.549 218.654 222.313 219C222.078 219.344 221.758 219.615 221.352 219.812C220.945 220.01 220.483 220.109 219.965 220.109Z" fill="black"/>
<path d="M210.297 230H209.281L212.219 222H213.219L216.156 230H215.141L212.75 223.266H212.688L210.297 230ZM210.672 226.875H214.766V227.734H210.672V226.875ZM217.074 228.359V227.562L220.59 222H221.168V223.234H220.777L218.121 227.437V227.5H222.855V228.359H217.074ZM220.84 230V228.117V227.746V222H221.762V230H220.84Z" fill="black"/>
<path d="M210.297 240H209.281L212.219 232H213.219L216.156 240H215.141L212.75 233.266H212.688L210.297 240ZM210.672 236.875H214.766V237.734H210.672V236.875ZM219.762 240.109C219.303 240.109 218.891 240.018 218.523 239.836C218.156 239.654 217.862 239.404 217.641 239.086C217.419 238.768 217.298 238.406 217.277 238H218.215C218.251 238.362 218.415 238.661 218.707 238.898C219.001 239.133 219.353 239.25 219.762 239.25C220.09 239.25 220.382 239.173 220.637 239.02C220.895 238.866 221.096 238.655 221.242 238.387C221.391 238.116 221.465 237.81 221.465 237.469C221.465 237.12 221.388 236.809 221.234 236.535C221.083 236.259 220.875 236.042 220.609 235.883C220.344 235.724 220.04 235.643 219.699 235.641C219.454 235.638 219.203 235.676 218.945 235.754C218.688 235.829 218.475 235.927 218.309 236.047L217.402 235.937L217.887 232H222.043V232.859H218.699L218.418 235.219H218.465C218.629 235.089 218.835 234.98 219.082 234.895C219.329 234.809 219.587 234.766 219.855 234.766C220.345 234.766 220.781 234.883 221.164 235.117C221.549 235.349 221.852 235.667 222.07 236.07C222.292 236.474 222.402 236.935 222.402 237.453C222.402 237.964 222.288 238.419 222.059 238.82C221.832 239.219 221.52 239.534 221.121 239.766C220.723 239.995 220.27 240.109 219.762 240.109Z" fill="black"/>
<path d="M294.297 80H293.281L296.219 72H297.219L300.156 80H299.141L296.75 73.2656H296.688L294.297 80ZM294.672 76.875H298.766V77.7344H294.672V76.875ZM301.402 80V72H304.105C304.73 72 305.243 72.1068 305.645 72.3203C306.046 72.5312 306.342 72.8216 306.535 73.1914C306.728 73.5612 306.824 73.9818 306.824 74.4531C306.824 74.9245 306.728 75.3424 306.535 75.707C306.342 76.0716 306.047 76.3581 305.648 76.5664C305.25 76.7721 304.741 76.875 304.121 76.875H301.934V76H304.09C304.517 76 304.861 75.9375 305.121 75.8125C305.384 75.6875 305.574 75.5104 305.691 75.2812C305.811 75.0495 305.871 74.7734 305.871 74.4531C305.871 74.1328 305.811 73.8529 305.691 73.6133C305.572 73.3737 305.38 73.1888 305.117 73.0586C304.854 72.9258 304.507 72.8594 304.074 72.8594H302.371V80H301.402ZM305.168 76.4062L307.137 80H306.012L304.074 76.4062H305.168ZM308.438 80V72H313.267V72.8594H309.407V75.5625H313.017V76.4219H309.407V79.1406H313.329V80H308.438ZM315.013 80V72H319.81V72.8594H315.981V75.5625H319.45V76.4219H315.981V80H315.013Z" fill="black"/>
<path d="M302.438 84.5C302.352 84.237 302.238 84.0013 302.098 83.793C301.96 83.582 301.794 83.4023 301.602 83.2539C301.411 83.1055 301.195 82.9922 300.953 82.9141C300.711 82.8359 300.445 82.7969 300.156 82.7969C299.682 82.7969 299.251 82.9193 298.863 83.1641C298.475 83.4089 298.167 83.7695 297.938 84.2461C297.708 84.7227 297.594 85.3073 297.594 86C297.594 86.6927 297.71 87.2773 297.941 87.7539C298.173 88.2305 298.487 88.5911 298.883 88.8359C299.279 89.0807 299.724 89.2031 300.219 89.2031C300.677 89.2031 301.081 89.1055 301.43 88.9102C301.781 88.7122 302.055 88.4336 302.25 88.0742C302.448 87.7122 302.547 87.2865 302.547 86.7969L302.844 86.8594H300.438V86H303.484V86.8594C303.484 87.5182 303.344 88.0911 303.063 88.5781C302.784 89.0651 302.398 89.4427 301.906 89.7109C301.417 89.9766 300.854 90.1094 300.219 90.1094C299.51 90.1094 298.888 89.9427 298.352 89.6094C297.818 89.276 297.401 88.8021 297.102 88.1875C296.805 87.5729 296.656 86.8437 296.656 86C296.656 85.3672 296.741 84.7982 296.91 84.293C297.082 83.7852 297.324 83.3529 297.637 82.9961C297.949 82.6393 298.319 82.3659 298.746 82.1758C299.173 81.9857 299.643 81.8906 300.156 81.8906C300.578 81.8906 300.971 81.9544 301.336 82.082C301.703 82.207 302.03 82.3854 302.316 82.6172C302.605 82.8464 302.846 83.1211 303.039 83.4414C303.232 83.7591 303.365 84.112 303.438 84.5H302.438ZM311.487 82V90H310.55L306.19 83.7187H306.112V90H305.144V82H306.081L310.456 88.2969H310.534V82H311.487ZM315.895 90H313.426V82H316.004C316.78 82 317.444 82.1602 317.996 82.4805C318.548 82.7982 318.971 83.2552 319.266 83.8516C319.56 84.4453 319.707 85.1562 319.707 85.9844C319.707 86.8177 319.559 87.5352 319.262 88.1367C318.965 88.7357 318.533 89.1966 317.965 89.5195C317.397 89.8398 316.707 90 315.895 90ZM314.395 89.1406H315.832C316.493 89.1406 317.042 89.013 317.477 88.7578C317.911 88.5026 318.236 88.1393 318.449 87.668C318.663 87.1966 318.77 86.6354 318.77 85.9844C318.77 85.3385 318.664 84.7826 318.453 84.3164C318.242 83.8477 317.927 83.4883 317.508 83.2383C317.089 82.9857 316.566 82.8594 315.941 82.8594H314.395V89.1406Z" fill="black"/>
<path d="M303.438 100H300.969V92H303.547C304.323 92 304.987 92.1602 305.539 92.4805C306.091 92.7982 306.514 93.2552 306.809 93.8516C307.103 94.4453 307.25 95.1562 307.25 95.9844C307.25 96.8177 307.102 97.5352 306.805 98.1367C306.508 98.7357 306.076 99.1966 305.508 99.5195C304.94 99.8398 304.25 100 303.438 100ZM301.938 99.1406H303.375C304.036 99.1406 304.585 99.013 305.02 98.7578C305.454 98.5026 305.779 98.1393 305.992 97.668C306.206 97.1966 306.312 96.6354 306.312 95.9844C306.312 95.3385 306.207 94.7826 305.996 94.3164C305.785 93.8477 305.47 93.4883 305.051 93.2383C304.632 92.9857 304.109 92.8594 303.484 92.8594H301.938V99.1406ZM311.547 92V100H310.578V93.0156H310.531L308.578 94.3125V93.3281L310.578 92H311.547ZM316.551 100.109C316.035 100.109 315.576 100.021 315.172 99.8437C314.771 99.6667 314.452 99.4206 314.215 99.1055C313.98 98.7878 313.853 98.4193 313.832 98H314.816C314.837 98.2578 314.926 98.4805 315.082 98.668C315.238 98.8529 315.443 98.9961 315.695 99.0977C315.948 99.1992 316.228 99.25 316.535 99.25C316.879 99.25 317.184 99.1901 317.449 99.0703C317.715 98.9505 317.923 98.7839 318.074 98.5703C318.225 98.3568 318.301 98.1094 318.301 97.8281C318.301 97.5339 318.228 97.2747 318.082 97.0508C317.936 96.8242 317.723 96.6471 317.441 96.5195C317.16 96.3919 316.816 96.3281 316.41 96.3281H315.77V95.4687H316.41C316.728 95.4687 317.007 95.4115 317.246 95.2969C317.488 95.1823 317.677 95.0208 317.813 94.8125C317.951 94.6042 318.02 94.3594 318.02 94.0781C318.02 93.8073 317.96 93.5716 317.84 93.3711C317.72 93.1706 317.551 93.0143 317.332 92.9023C317.116 92.7904 316.861 92.7344 316.566 92.7344C316.29 92.7344 316.03 92.7852 315.785 92.8867C315.543 92.9857 315.345 93.1302 315.191 93.3203C315.038 93.5078 314.954 93.7344 314.941 94H314.004C314.02 93.5807 314.146 93.2135 314.383 92.8984C314.62 92.5807 314.93 92.3333 315.313 92.1562C315.698 91.9792 316.121 91.8906 316.582 91.8906C317.077 91.8906 317.501 91.9909 317.855 92.1914C318.21 92.3893 318.482 92.651 318.672 92.9766C318.862 93.3021 318.957 93.6536 318.957 94.0313C318.957 94.4818 318.839 94.8659 318.602 95.1836C318.367 95.5013 318.048 95.7214 317.645 95.8438V95.9062C318.15 95.9896 318.544 96.2044 318.828 96.5508C319.112 96.8945 319.254 97.3203 319.254 97.8281C319.254 98.263 319.135 98.6536 318.898 99C318.664 99.3437 318.344 99.6146 317.938 99.8125C317.531 100.01 317.069 100.109 316.551 100.109Z" fill="black"/>
<path d="M304.438 110H301.969V102H304.547C305.323 102 305.987 102.16 306.539 102.48C307.091 102.798 307.514 103.255 307.809 103.852C308.103 104.445 308.25 105.156 308.25 105.984C308.25 106.818 308.102 107.535 307.805 108.137C307.508 108.736 307.076 109.197 306.508 109.52C305.94 109.84 305.25 110 304.438 110ZM302.938 109.141H304.375C305.036 109.141 305.585 109.013 306.02 108.758C306.454 108.503 306.779 108.139 306.992 107.668C307.206 107.197 307.312 106.635 307.312 105.984C307.312 105.339 307.207 104.783 306.996 104.316C306.785 103.848 306.47 103.488 306.051 103.238C305.632 102.986 305.109 102.859 304.484 102.859H302.938V109.141ZM312.547 102V110H311.578V103.016H311.531L309.578 104.312V103.328L311.578 102H312.547ZM314.848 110V109.297L317.488 106.406C317.798 106.068 318.053 105.773 318.254 105.523C318.454 105.271 318.603 105.034 318.699 104.812C318.798 104.589 318.848 104.354 318.848 104.109C318.848 103.828 318.78 103.585 318.645 103.379C318.512 103.173 318.329 103.014 318.098 102.902C317.866 102.79 317.605 102.734 317.316 102.734C317.009 102.734 316.741 102.798 316.512 102.926C316.285 103.051 316.109 103.227 315.984 103.453C315.862 103.68 315.801 103.945 315.801 104.25H314.879C314.879 103.781 314.987 103.37 315.203 103.016C315.419 102.661 315.714 102.385 316.086 102.187C316.461 101.99 316.882 101.891 317.348 101.891C317.816 101.891 318.232 101.99 318.594 102.187C318.956 102.385 319.24 102.652 319.445 102.988C319.651 103.324 319.754 103.698 319.754 104.109C319.754 104.404 319.701 104.691 319.594 104.973C319.49 105.251 319.307 105.562 319.047 105.906C318.789 106.247 318.431 106.664 317.973 107.156L316.176 109.078V109.141H319.895V110H314.848Z" fill="black"/>
<path d="M272.969 120V112H275.672C276.299 112 276.813 112.113 277.211 112.34C277.612 112.564 277.909 112.867 278.102 113.25C278.294 113.633 278.391 114.06 278.391 114.531C278.391 115.003 278.294 115.431 278.102 115.816C277.911 116.202 277.617 116.509 277.219 116.738C276.82 116.965 276.31 117.078 275.688 117.078H273.75V116.219H275.656C276.086 116.219 276.431 116.145 276.691 115.996C276.952 115.848 277.141 115.647 277.258 115.395C277.378 115.139 277.438 114.852 277.438 114.531C277.438 114.211 277.378 113.924 277.258 113.672C277.141 113.419 276.951 113.221 276.688 113.078C276.424 112.932 276.076 112.859 275.641 112.859H273.938V120H272.969ZM281.404 120L279.217 112H280.201L281.873 118.516H281.951L283.654 112H284.748L286.451 118.516H286.529L288.201 112H289.186L286.998 120H285.998L284.232 113.625H284.17L282.404 120H281.404ZM290.393 112H291.549L294.268 118.641H294.361L297.08 112H298.236V120H297.33V113.922H297.252L294.752 120H293.877L291.377 113.922H291.299V120H290.393V112ZM305.741 120H303.272V112H305.851C306.627 112 307.291 112.16 307.843 112.48C308.395 112.798 308.818 113.255 309.112 113.852C309.407 114.445 309.554 115.156 309.554 115.984C309.554 116.818 309.405 117.535 309.108 118.137C308.812 118.736 308.379 119.197 307.812 119.52C307.244 119.84 306.554 120 305.741 120ZM304.241 119.141H305.679C306.34 119.141 306.888 119.013 307.323 118.758C307.758 118.503 308.082 118.139 308.296 117.668C308.509 117.197 308.616 116.635 308.616 115.984C308.616 115.339 308.511 114.783 308.3 114.316C308.089 113.848 307.774 113.488 307.354 113.238C306.935 112.986 306.413 112.859 305.788 112.859H304.241V119.141ZM313.851 112V120H312.882V113.016H312.835L310.882 114.312V113.328L312.882 112H313.851ZM318.964 112V120H317.995V113.016H317.948L315.995 114.312V113.328L317.995 112H318.964Z" fill="black"/>
<path d="M270.969 130V122H273.672C274.299 122 274.813 122.113 275.211 122.34C275.612 122.564 275.909 122.867 276.102 123.25C276.294 123.633 276.391 124.06 276.391 124.531C276.391 125.003 276.294 125.431 276.102 125.816C275.911 126.202 275.617 126.509 275.219 126.738C274.82 126.965 274.31 127.078 273.688 127.078H271.75V126.219H273.656C274.086 126.219 274.431 126.145 274.691 125.996C274.952 125.848 275.141 125.647 275.258 125.395C275.378 125.139 275.438 124.852 275.438 124.531C275.438 124.211 275.378 123.924 275.258 123.672C275.141 123.419 274.951 123.221 274.688 123.078C274.424 122.932 274.076 122.859 273.641 122.859H271.938V130H270.969ZM279.404 130L277.217 122H278.201L279.873 128.516H279.951L281.654 122H282.748L284.451 128.516H284.529L286.201 122H287.186L284.998 130H283.998L282.232 123.625H282.17L280.404 130H279.404ZM288.393 122H289.549L292.268 128.641H292.361L295.08 122H296.236V130H295.33V123.922H295.252L292.752 130H291.877L289.377 123.922H289.299V130H288.393V122ZM303.741 130H301.272V122H303.851C304.627 122 305.291 122.16 305.843 122.48C306.395 122.798 306.818 123.255 307.112 123.852C307.407 124.445 307.554 125.156 307.554 125.984C307.554 126.818 307.405 127.535 307.108 128.137C306.812 128.736 306.379 129.197 305.812 129.52C305.244 129.84 304.554 130 303.741 130ZM302.241 129.141H303.679C304.34 129.141 304.888 129.013 305.323 128.758C305.758 128.503 306.082 128.139 306.296 127.668C306.509 127.197 306.616 126.635 306.616 125.984C306.616 125.339 306.511 124.783 306.3 124.316C306.089 123.848 305.774 123.488 305.354 123.238C304.935 122.986 304.413 122.859 303.788 122.859H302.241V129.141ZM311.851 122V130H310.882V123.016H310.835L308.882 124.312V123.328L310.882 122H311.851ZM316.761 130.109C316.172 130.109 315.671 129.949 315.257 129.629C314.843 129.306 314.526 128.839 314.308 128.227C314.089 127.612 313.979 126.87 313.979 126C313.979 125.135 314.089 124.397 314.308 123.785C314.529 123.171 314.847 122.702 315.261 122.379C315.677 122.053 316.177 121.891 316.761 121.891C317.344 121.891 317.843 122.053 318.257 122.379C318.674 122.702 318.991 123.171 319.21 123.785C319.431 124.397 319.542 125.135 319.542 126C319.542 126.87 319.433 127.612 319.214 128.227C318.995 128.839 318.679 129.306 318.265 129.629C317.851 129.949 317.349 130.109 316.761 130.109ZM316.761 129.25C317.344 129.25 317.797 128.969 318.12 128.406C318.443 127.844 318.604 127.042 318.604 126C318.604 125.307 318.53 124.717 318.382 124.23C318.236 123.743 318.025 123.372 317.749 123.117C317.476 122.862 317.146 122.734 316.761 122.734C316.183 122.734 315.731 123.02 315.405 123.59C315.08 124.158 314.917 124.961 314.917 126C314.917 126.693 314.99 127.281 315.136 127.766C315.282 128.25 315.491 128.618 315.765 128.871C316.041 129.124 316.373 129.25 316.761 129.25Z" fill="black"/>
<path d="M269.969 140V132H272.672C273.299 132 273.813 132.113 274.211 132.34C274.612 132.564 274.909 132.867 275.102 133.25C275.294 133.633 275.391 134.06 275.391 134.531C275.391 135.003 275.294 135.431 275.102 135.816C274.911 136.202 274.617 136.509 274.219 136.738C273.82 136.965 273.31 137.078 272.688 137.078H270.75V136.219H272.656C273.086 136.219 273.431 136.145 273.691 135.996C273.952 135.848 274.141 135.647 274.258 135.395C274.378 135.139 274.438 134.852 274.438 134.531C274.438 134.211 274.378 133.924 274.258 133.672C274.141 133.419 273.951 133.221 273.688 133.078C273.424 132.932 273.076 132.859 272.641 132.859H270.938V140H269.969ZM278.404 140L276.217 132H277.201L278.873 138.516H278.951L280.654 132H281.748L283.451 138.516H283.529L285.201 132H286.186L283.998 140H282.998L281.232 133.625H281.17L279.404 140H278.404ZM287.393 132H288.549L291.268 138.641H291.361L294.08 132H295.236V140H294.33V133.922H294.252L291.752 140H290.877L288.377 133.922H288.299V140H287.393V132ZM308.929 140H306.46V132H309.038C309.814 132 310.478 132.16 311.03 132.48C311.582 132.798 312.006 133.255 312.3 133.852C312.594 134.445 312.741 135.156 312.741 135.984C312.741 136.818 312.593 137.535 312.296 138.137C311.999 138.736 311.567 139.197 310.999 139.52C310.431 139.84 309.741 140 308.929 140ZM307.429 139.141H308.866C309.528 139.141 310.076 139.013 310.511 138.758C310.946 138.503 311.27 138.139 311.483 137.668C311.697 137.197 311.804 136.635 311.804 135.984C311.804 135.339 311.698 134.783 311.487 134.316C311.276 133.848 310.961 133.488 310.542 133.238C310.123 132.986 309.601 132.859 308.976 132.859H307.429V139.141ZM316.772 131.891C317.101 131.893 317.429 131.956 317.757 132.078C318.085 132.201 318.384 132.404 318.655 132.687C318.926 132.969 319.144 133.353 319.308 133.84C319.472 134.327 319.554 134.937 319.554 135.672C319.554 136.383 319.486 137.014 319.351 137.566C319.218 138.116 319.025 138.579 318.772 138.957C318.522 139.335 318.218 139.621 317.858 139.816C317.502 140.012 317.098 140.109 316.647 140.109C316.2 140.109 315.8 140.021 315.448 139.844C315.099 139.664 314.813 139.415 314.589 139.098C314.368 138.777 314.226 138.406 314.163 137.984H315.116C315.202 138.352 315.373 138.655 315.628 138.895C315.886 139.132 316.226 139.25 316.647 139.25C317.265 139.25 317.752 138.98 318.108 138.441C318.468 137.902 318.647 137.141 318.647 136.156H318.585C318.439 136.375 318.266 136.564 318.065 136.723C317.865 136.882 317.642 137.004 317.397 137.09C317.153 137.176 316.892 137.219 316.616 137.219C316.158 137.219 315.737 137.105 315.354 136.879C314.974 136.65 314.67 136.336 314.44 135.937C314.214 135.536 314.101 135.078 314.101 134.562C314.101 134.073 314.21 133.625 314.429 133.219C314.65 132.81 314.96 132.484 315.358 132.242C315.759 132 316.231 131.883 316.772 131.891ZM316.772 132.75C316.444 132.75 316.149 132.832 315.886 132.996C315.625 133.158 315.418 133.376 315.265 133.652C315.114 133.926 315.038 134.229 315.038 134.562C315.038 134.896 315.111 135.199 315.257 135.473C315.405 135.743 315.607 135.96 315.862 136.121C316.12 136.28 316.413 136.359 316.741 136.359C316.989 136.359 317.219 136.311 317.433 136.215C317.646 136.116 317.832 135.982 317.991 135.812C318.153 135.641 318.279 135.447 318.37 135.23C318.461 135.012 318.507 134.784 318.507 134.547C318.507 134.234 318.431 133.941 318.28 133.668C318.132 133.395 317.926 133.173 317.663 133.004C317.403 132.835 317.106 132.75 316.772 132.75Z" fill="black"/>
<path d="M309.438 150H306.969V142H309.547C310.323 142 310.987 142.16 311.539 142.48C312.091 142.798 312.514 143.255 312.809 143.852C313.103 144.445 313.25 145.156 313.25 145.984C313.25 146.818 313.102 147.535 312.805 148.137C312.508 148.736 312.076 149.197 311.508 149.52C310.94 149.84 310.25 150 309.438 150ZM307.938 149.141H309.375C310.036 149.141 310.585 149.013 311.02 148.758C311.454 148.503 311.779 148.139 311.992 147.668C312.206 147.197 312.312 146.635 312.312 145.984C312.312 145.339 312.207 144.783 311.996 144.316C311.785 143.848 311.47 143.488 311.051 143.238C310.632 142.986 310.109 142.859 309.484 142.859H307.938V149.141ZM317.297 150.109C316.76 150.109 316.286 150.014 315.875 149.824C315.466 149.632 315.147 149.367 314.918 149.031C314.689 148.693 314.576 148.307 314.578 147.875C314.576 147.536 314.642 147.224 314.777 146.937C314.913 146.648 315.098 146.408 315.332 146.215C315.569 146.02 315.833 145.896 316.125 145.844V145.797C315.742 145.698 315.438 145.483 315.211 145.152C314.984 144.819 314.872 144.44 314.875 144.016C314.872 143.609 314.975 143.246 315.184 142.926C315.392 142.605 315.678 142.353 316.043 142.168C316.41 141.983 316.828 141.891 317.297 141.891C317.76 141.891 318.174 141.983 318.539 142.168C318.904 142.353 319.19 142.605 319.398 142.926C319.609 143.246 319.716 143.609 319.719 144.016C319.716 144.44 319.6 144.819 319.371 145.152C319.145 145.483 318.844 145.698 318.469 145.797V145.844C318.758 145.896 319.018 146.02 319.25 146.215C319.482 146.408 319.667 146.648 319.805 146.937C319.943 147.224 320.013 147.536 320.016 147.875C320.013 148.307 319.896 148.693 319.664 149.031C319.435 149.367 319.116 149.632 318.707 149.824C318.301 150.014 317.831 150.109 317.297 150.109ZM317.297 149.25C317.659 149.25 317.971 149.191 318.234 149.074C318.497 148.957 318.701 148.792 318.844 148.578C318.987 148.365 319.06 148.115 319.062 147.828C319.06 147.526 318.982 147.259 318.828 147.027C318.674 146.796 318.465 146.613 318.199 146.48C317.936 146.348 317.635 146.281 317.297 146.281C316.956 146.281 316.651 146.348 316.383 146.48C316.117 146.613 315.908 146.796 315.754 147.027C315.603 147.259 315.529 147.526 315.531 147.828C315.529 148.115 315.598 148.365 315.738 148.578C315.882 148.792 316.086 148.957 316.352 149.074C316.617 149.191 316.932 149.25 317.297 149.25ZM317.297 145.453C317.583 145.453 317.837 145.396 318.059 145.281C318.283 145.167 318.458 145.007 318.586 144.801C318.714 144.595 318.779 144.354 318.781 144.078C318.779 143.807 318.715 143.572 318.59 143.371C318.465 143.168 318.292 143.012 318.07 142.902C317.849 142.79 317.591 142.734 317.297 142.734C316.997 142.734 316.736 142.79 316.512 142.902C316.288 143.012 316.115 143.168 315.992 143.371C315.87 143.572 315.81 143.807 315.812 144.078C315.81 144.354 315.871 144.595 315.996 144.801C316.124 145.007 316.299 145.167 316.523 145.281C316.747 145.396 317.005 145.453 317.297 145.453Z" fill="black"/>
<path d="M309.438 170H306.969V162H309.547C310.323 162 310.987 162.16 311.539 162.48C312.091 162.798 312.514 163.255 312.809 163.852C313.103 164.445 313.25 165.156 313.25 165.984C313.25 166.818 313.102 167.535 312.805 168.137C312.508 168.736 312.076 169.197 311.508 169.52C310.94 169.84 310.25 170 309.438 170ZM307.938 169.141H309.375C310.036 169.141 310.585 169.013 311.02 168.758C311.454 168.503 311.779 168.139 311.992 167.668C312.206 167.197 312.312 166.635 312.312 165.984C312.312 165.339 312.207 164.783 311.996 164.316C311.785 163.848 311.47 163.488 311.051 163.238C310.632 162.986 310.109 162.859 309.484 162.859H307.938V169.141ZM314.984 170L318.563 162.922V162.859H314.438V162H319.563V162.906L316 170H314.984Z" fill="black"/>
<path d="M269.969 180V172H272.672C273.299 172 273.813 172.113 274.211 172.34C274.612 172.564 274.909 172.867 275.102 173.25C275.294 173.633 275.391 174.06 275.391 174.531C275.391 175.003 275.294 175.431 275.102 175.816C274.911 176.202 274.617 176.509 274.219 176.738C273.82 176.965 273.31 177.078 272.688 177.078H270.75V176.219H272.656C273.086 176.219 273.431 176.145 273.691 175.996C273.952 175.848 274.141 175.647 274.258 175.395C274.378 175.139 274.438 174.852 274.438 174.531C274.438 174.211 274.378 173.924 274.258 173.672C274.141 173.419 273.951 173.221 273.688 173.078C273.424 172.932 273.076 172.859 272.641 172.859H270.938V180H269.969ZM278.404 180L276.217 172H277.201L278.873 178.516H278.951L280.654 172H281.748L283.451 178.516H283.529L285.201 172H286.186L283.998 180H282.998L281.232 173.625H281.17L279.404 180H278.404ZM287.393 172H288.549L291.268 178.641H291.361L294.08 172H295.236V180H294.33V173.922H294.252L291.752 180H290.877L288.377 173.922H288.299V180H287.393V172ZM308.929 180H306.46V172H309.038C309.814 172 310.478 172.16 311.03 172.48C311.582 172.798 312.006 173.255 312.3 173.852C312.594 174.445 312.741 175.156 312.741 175.984C312.741 176.818 312.593 177.535 312.296 178.137C311.999 178.736 311.567 179.197 310.999 179.52C310.431 179.84 309.741 180 308.929 180ZM307.429 179.141H308.866C309.528 179.141 310.076 179.013 310.511 178.758C310.946 178.503 311.27 178.139 311.483 177.668C311.697 177.197 311.804 176.635 311.804 175.984C311.804 175.339 311.698 174.783 311.487 174.316C311.276 173.848 310.961 173.488 310.542 173.238C310.123 172.986 309.601 172.859 308.976 172.859H307.429V179.141ZM316.882 180.109C316.554 180.104 316.226 180.042 315.897 179.922C315.569 179.802 315.27 179.6 314.999 179.316C314.728 179.03 314.511 178.643 314.347 178.156C314.183 177.667 314.101 177.052 314.101 176.312C314.101 175.604 314.167 174.977 314.3 174.43C314.433 173.88 314.625 173.418 314.878 173.043C315.131 172.665 315.435 172.379 315.792 172.184C316.151 171.988 316.556 171.891 317.007 171.891C317.455 171.891 317.853 171.98 318.202 172.16C318.554 172.337 318.84 172.585 319.062 172.902C319.283 173.22 319.426 173.586 319.491 174H318.538C318.45 173.641 318.278 173.342 318.022 173.105C317.767 172.868 317.429 172.75 317.007 172.75C316.387 172.75 315.899 173.02 315.542 173.559C315.188 174.098 315.009 174.854 315.007 175.828H315.069C315.215 175.607 315.388 175.418 315.589 175.262C315.792 175.103 316.016 174.98 316.261 174.895C316.506 174.809 316.765 174.766 317.038 174.766C317.496 174.766 317.916 174.88 318.296 175.109C318.676 175.336 318.981 175.65 319.21 176.051C319.439 176.449 319.554 176.906 319.554 177.422C319.554 177.917 319.443 178.37 319.222 178.781C319 179.19 318.689 179.516 318.288 179.758C317.89 179.997 317.421 180.115 316.882 180.109ZM316.882 179.25C317.21 179.25 317.504 179.168 317.765 179.004C318.028 178.84 318.235 178.62 318.386 178.344C318.539 178.068 318.616 177.76 318.616 177.422C318.616 177.091 318.542 176.79 318.394 176.52C318.248 176.246 318.046 176.029 317.788 175.867C317.533 175.706 317.241 175.625 316.913 175.625C316.666 175.625 316.435 175.674 316.222 175.773C316.008 175.87 315.821 176.003 315.659 176.172C315.5 176.341 315.375 176.535 315.284 176.754C315.193 176.97 315.147 177.198 315.147 177.437C315.147 177.755 315.222 178.052 315.37 178.328C315.521 178.604 315.727 178.827 315.987 178.996C316.25 179.165 316.549 179.25 316.882 179.25Z" fill="black"/>
<path d="M269.969 190V182H272.672C273.299 182 273.813 182.113 274.211 182.34C274.612 182.564 274.909 182.867 275.102 183.25C275.294 183.633 275.391 184.06 275.391 184.531C275.391 185.003 275.294 185.431 275.102 185.816C274.911 186.202 274.617 186.509 274.219 186.738C273.82 186.965 273.31 187.078 272.688 187.078H270.75V186.219H272.656C273.086 186.219 273.431 186.145 273.691 185.996C273.952 185.848 274.141 185.647 274.258 185.395C274.378 185.139 274.438 184.852 274.438 184.531C274.438 184.211 274.378 183.924 274.258 183.672C274.141 183.419 273.951 183.221 273.688 183.078C273.424 182.932 273.076 182.859 272.641 182.859H270.938V190H269.969ZM278.404 190L276.217 182H277.201L278.873 188.516H278.951L280.654 182H281.748L283.451 188.516H283.529L285.201 182H286.186L283.998 190H282.998L281.232 183.625H281.17L279.404 190H278.404ZM287.393 182H288.549L291.268 188.641H291.361L294.08 182H295.236V190H294.33V183.922H294.252L291.752 190H290.877L288.377 183.922H288.299V190H287.393V182ZM308.929 190H306.46V182H309.038C309.814 182 310.478 182.16 311.03 182.48C311.582 182.798 312.006 183.255 312.3 183.852C312.594 184.445 312.741 185.156 312.741 185.984C312.741 186.818 312.593 187.535 312.296 188.137C311.999 188.736 311.567 189.197 310.999 189.52C310.431 189.84 309.741 190 308.929 190ZM307.429 189.141H308.866C309.528 189.141 310.076 189.013 310.511 188.758C310.946 188.503 311.27 188.139 311.483 187.668C311.697 187.197 311.804 186.635 311.804 185.984C311.804 185.339 311.698 184.783 311.487 184.316C311.276 183.848 310.961 183.488 310.542 183.238C310.123 182.986 309.601 182.859 308.976 182.859H307.429V189.141ZM316.726 190.109C316.267 190.109 315.854 190.018 315.487 189.836C315.12 189.654 314.826 189.404 314.604 189.086C314.383 188.768 314.262 188.406 314.241 188H315.179C315.215 188.362 315.379 188.661 315.671 188.898C315.965 189.133 316.317 189.25 316.726 189.25C317.054 189.25 317.345 189.173 317.601 189.02C317.858 188.866 318.06 188.655 318.206 188.387C318.354 188.116 318.429 187.81 318.429 187.469C318.429 187.12 318.352 186.809 318.198 186.535C318.047 186.259 317.839 186.042 317.573 185.883C317.308 185.724 317.004 185.643 316.663 185.641C316.418 185.638 316.167 185.676 315.909 185.754C315.651 185.829 315.439 185.927 315.272 186.047L314.366 185.937L314.851 182H319.007V182.859H315.663L315.382 185.219H315.429C315.593 185.089 315.799 184.98 316.046 184.895C316.293 184.809 316.551 184.766 316.819 184.766C317.309 184.766 317.745 184.883 318.128 185.117C318.513 185.349 318.815 185.667 319.034 186.07C319.256 186.474 319.366 186.935 319.366 187.453C319.366 187.964 319.252 188.419 319.022 188.82C318.796 189.219 318.483 189.534 318.085 189.766C317.687 189.995 317.233 190.109 316.726 190.109Z" fill="black"/>
<path d="M309.438 200H306.969V192H309.547C310.323 192 310.987 192.16 311.539 192.48C312.091 192.798 312.514 193.255 312.809 193.852C313.103 194.445 313.25 195.156 313.25 195.984C313.25 196.818 313.102 197.535 312.805 198.137C312.508 198.736 312.076 199.197 311.508 199.52C310.94 199.84 310.25 200 309.438 200ZM307.938 199.141H309.375C310.036 199.141 310.585 199.013 311.02 198.758C311.454 198.503 311.779 198.139 311.992 197.668C312.206 197.197 312.312 196.635 312.312 195.984C312.312 195.339 312.207 194.783 311.996 194.316C311.785 193.848 311.47 193.488 311.051 193.238C310.632 192.986 310.109 192.859 309.484 192.859H307.938V199.141ZM314.547 198.359V197.562L318.062 192H318.641V193.234H318.25L315.594 197.437V197.5H320.328V198.359H314.547ZM318.313 200V198.117V197.746V192H319.234V200H318.313Z" fill="black"/>
<path d="M269.969 210V202H272.672C273.299 202 273.813 202.113 274.211 202.34C274.612 202.564 274.909 202.867 275.102 203.25C275.294 203.633 275.391 204.06 275.391 204.531C275.391 205.003 275.294 205.431 275.102 205.816C274.911 206.202 274.617 206.509 274.219 206.738C273.82 206.965 273.31 207.078 272.688 207.078H270.75V206.219H272.656C273.086 206.219 273.431 206.145 273.691 205.996C273.952 205.848 274.141 205.647 274.258 205.395C274.378 205.139 274.438 204.852 274.438 204.531C274.438 204.211 274.378 203.924 274.258 203.672C274.141 203.419 273.951 203.221 273.688 203.078C273.424 202.932 273.076 202.859 272.641 202.859H270.938V210H269.969ZM278.404 210L276.217 202H277.201L278.873 208.516H278.951L280.654 202H281.748L283.451 208.516H283.529L285.201 202H286.186L283.998 210H282.998L281.232 203.625H281.17L279.404 210H278.404ZM287.393 202H288.549L291.268 208.641H291.361L294.08 202H295.236V210H294.33V203.922H294.252L291.752 210H290.877L288.377 203.922H288.299V210H287.393V202ZM308.929 210H306.46V202H309.038C309.814 202 310.478 202.16 311.03 202.48C311.582 202.798 312.006 203.255 312.3 203.852C312.594 204.445 312.741 205.156 312.741 205.984C312.741 206.818 312.593 207.535 312.296 208.137C311.999 208.736 311.567 209.197 310.999 209.52C310.431 209.84 309.741 210 308.929 210ZM307.429 209.141H308.866C309.528 209.141 310.076 209.013 310.511 208.758C310.946 208.503 311.27 208.139 311.483 207.668C311.697 207.197 311.804 206.635 311.804 205.984C311.804 205.339 311.698 204.783 311.487 204.316C311.276 203.848 310.961 203.488 310.542 203.238C310.123 202.986 309.601 202.859 308.976 202.859H307.429V209.141ZM316.929 210.109C316.413 210.109 315.953 210.021 315.55 209.844C315.149 209.667 314.83 209.421 314.593 209.105C314.358 208.788 314.231 208.419 314.21 208H315.194C315.215 208.258 315.304 208.48 315.46 208.668C315.616 208.853 315.821 208.996 316.073 209.098C316.326 209.199 316.606 209.25 316.913 209.25C317.257 209.25 317.562 209.19 317.827 209.07C318.093 208.951 318.301 208.784 318.452 208.57C318.603 208.357 318.679 208.109 318.679 207.828C318.679 207.534 318.606 207.275 318.46 207.051C318.314 206.824 318.101 206.647 317.819 206.52C317.538 206.392 317.194 206.328 316.788 206.328H316.147V205.469H316.788C317.106 205.469 317.384 205.411 317.624 205.297C317.866 205.182 318.055 205.021 318.19 204.812C318.328 204.604 318.397 204.359 318.397 204.078C318.397 203.807 318.338 203.572 318.218 203.371C318.098 203.171 317.929 203.014 317.71 202.902C317.494 202.79 317.239 202.734 316.944 202.734C316.668 202.734 316.408 202.785 316.163 202.887C315.921 202.986 315.723 203.13 315.569 203.32C315.416 203.508 315.332 203.734 315.319 204H314.382C314.397 203.581 314.524 203.214 314.761 202.898C314.998 202.581 315.308 202.333 315.69 202.156C316.076 201.979 316.499 201.891 316.96 201.891C317.455 201.891 317.879 201.991 318.233 202.191C318.588 202.389 318.86 202.651 319.05 202.977C319.24 203.302 319.335 203.654 319.335 204.031C319.335 204.482 319.216 204.866 318.979 205.184C318.745 205.501 318.426 205.721 318.022 205.844V205.906C318.528 205.99 318.922 206.204 319.206 206.551C319.49 206.895 319.632 207.32 319.632 207.828C319.632 208.263 319.513 208.654 319.276 209C319.042 209.344 318.722 209.615 318.315 209.812C317.909 210.01 317.447 210.109 316.929 210.109Z" fill="black"/>
<path d="M309.438 220H306.969V212H309.547C310.323 212 310.987 212.16 311.539 212.48C312.091 212.798 312.514 213.255 312.809 213.852C313.103 214.445 313.25 215.156 313.25 215.984C313.25 216.818 313.102 217.535 312.805 218.137C312.508 218.736 312.076 219.197 311.508 219.52C310.94 219.84 310.25 220 309.438 220ZM307.938 219.141H309.375C310.036 219.141 310.585 219.013 311.02 218.758C311.454 218.503 311.779 218.139 311.992 217.668C312.206 217.197 312.312 216.635 312.312 215.984C312.312 215.339 312.207 214.783 311.996 214.316C311.785 213.848 311.47 213.488 311.051 213.238C310.632 212.986 310.109 212.859 309.484 212.859H307.938V219.141ZM314.734 220V219.297L317.375 216.406C317.685 216.068 317.94 215.773 318.141 215.523C318.341 215.271 318.49 215.034 318.586 214.812C318.685 214.589 318.734 214.354 318.734 214.109C318.734 213.828 318.667 213.585 318.531 213.379C318.398 213.173 318.216 213.014 317.984 212.902C317.753 212.79 317.492 212.734 317.203 212.734C316.896 212.734 316.628 212.798 316.398 212.926C316.172 213.051 315.996 213.227 315.871 213.453C315.749 213.68 315.688 213.945 315.688 214.25H314.766C314.766 213.781 314.874 213.37 315.09 213.016C315.306 212.661 315.6 212.385 315.973 212.187C316.348 211.99 316.768 211.891 317.234 211.891C317.703 211.891 318.118 211.99 318.48 212.187C318.842 212.385 319.126 212.652 319.332 212.988C319.538 213.324 319.641 213.698 319.641 214.109C319.641 214.404 319.587 214.691 319.48 214.973C319.376 215.251 319.194 215.562 318.934 215.906C318.676 216.247 318.318 216.664 317.859 217.156L316.063 219.078V219.141H319.781V220H314.734Z" fill="black"/>
<path d="M284.531 222.859V222H290.531V222.859H288.016V230H287.047V222.859H284.531ZM292.495 222L294.558 225.328H294.62L296.683 222H297.823L295.308 226L297.823 230H296.683L294.62 226.734H294.558L292.495 230H291.354L293.933 226L291.354 222H292.495ZM310.834 230H308.365V222H310.943C311.719 222 312.383 222.16 312.936 222.48C313.488 222.798 313.911 223.255 314.205 223.852C314.499 224.445 314.646 225.156 314.646 225.984C314.646 226.818 314.498 227.535 314.201 228.137C313.904 228.736 313.472 229.197 312.904 229.52C312.337 229.84 311.646 230 310.834 230ZM309.334 229.141H310.771C311.433 229.141 311.981 229.013 312.416 228.758C312.851 228.503 313.175 228.139 313.389 227.668C313.602 227.197 313.709 226.635 313.709 225.984C313.709 225.339 313.604 224.783 313.393 224.316C313.182 223.848 312.867 223.488 312.447 223.238C312.028 222.986 311.506 222.859 310.881 222.859H309.334V229.141ZM318.943 222V230H317.975V223.016H317.928L315.975 224.312V223.328L317.975 222H318.943Z" fill="black"/>
<path d="M282.969 240V232H285.672C286.297 232 286.81 232.107 287.211 232.32C287.612 232.531 287.909 232.822 288.102 233.191C288.294 233.561 288.391 233.982 288.391 234.453C288.391 234.924 288.294 235.342 288.102 235.707C287.909 236.072 287.613 236.358 287.215 236.566C286.816 236.772 286.307 236.875 285.688 236.875H283.5V236H285.656C286.083 236 286.427 235.937 286.688 235.812C286.951 235.687 287.141 235.51 287.258 235.281C287.378 235.049 287.438 234.773 287.438 234.453C287.438 234.133 287.378 233.853 287.258 233.613C287.138 233.374 286.947 233.189 286.684 233.059C286.421 232.926 286.073 232.859 285.641 232.859H283.938V240H282.969ZM286.734 236.406L288.703 240H287.578L285.641 236.406H286.734ZM290.474 232L292.536 235.328H292.599L294.661 232H295.802L293.286 236L295.802 240H294.661L292.599 236.734H292.536L290.474 240H289.333L291.911 236L289.333 232H290.474ZM308.812 240H306.344V232H308.922C309.698 232 310.362 232.16 310.914 232.48C311.466 232.798 311.889 233.255 312.184 233.852C312.478 234.445 312.625 235.156 312.625 235.984C312.625 236.818 312.477 237.535 312.18 238.137C311.883 238.736 311.451 239.197 310.883 239.52C310.315 239.84 309.625 240 308.812 240ZM307.313 239.141H308.75C309.411 239.141 309.96 239.013 310.395 238.758C310.829 238.503 311.154 238.139 311.367 237.668C311.581 237.197 311.687 236.635 311.687 235.984C311.687 235.339 311.582 234.783 311.371 234.316C311.16 233.848 310.845 233.488 310.426 233.238C310.007 232.986 309.484 232.859 308.859 232.859H307.313V239.141ZM316.719 240.109C316.13 240.109 315.629 239.949 315.215 239.629C314.801 239.306 314.484 238.839 314.266 238.227C314.047 237.612 313.938 236.87 313.938 236C313.938 235.135 314.047 234.397 314.266 233.785C314.487 233.171 314.805 232.702 315.219 232.379C315.635 232.053 316.135 231.891 316.719 231.891C317.302 231.891 317.801 232.053 318.215 232.379C318.632 232.702 318.949 233.171 319.168 233.785C319.389 234.397 319.5 235.135 319.5 236C319.5 236.87 319.391 237.612 319.172 238.227C318.953 238.839 318.637 239.306 318.223 239.629C317.809 239.949 317.307 240.109 316.719 240.109ZM316.719 239.25C317.302 239.25 317.755 238.969 318.078 238.406C318.401 237.844 318.563 237.042 318.563 236C318.563 235.307 318.488 234.717 318.34 234.23C318.194 233.743 317.983 233.372 317.707 233.117C317.434 232.862 317.104 232.734 316.719 232.734C316.141 232.734 315.689 233.02 315.363 233.59C315.038 234.158 314.875 234.961 314.875 236C314.875 236.693 314.948 237.281 315.094 237.766C315.24 238.25 315.449 238.618 315.723 238.871C315.999 239.124 316.331 239.25 316.719 239.25Z" fill="black"/>
<path d="M265 70C267 79 280 79 280 70C280 61 267 61 265 70Z" stroke="black" stroke-width="2" stroke-linecap="square"/>
<path d="M265 70C263 61 250 61 250 70C250 79 263 79 265 70Z" stroke="black" stroke-width="2" stroke-linecap="square"/>
<path d="M271 70H275" stroke="black" stroke-width="2" stroke-linecap="square"/>
<path d="M273 72V68" stroke="black" stroke-width="2" stroke-linecap="square"/>
<path d="M259 70H255" stroke="black" stroke-width="2" stroke-linecap="square"/>
<path d="M30 50H60" stroke="black" stroke-width="2" stroke-linecap="square"/>
<path d="M100 50H130" stroke="black" stroke-width="2" stroke-linecap="square"/>
<path d="M60 50H62L65 43L71 57L77 43L83 57L89 43L95 57L98 50H100" stroke="black" stroke-width="2" stroke-linecap="square"/>
<path d="M64.8281 36V35.2969L67.4687 32.4062C67.7786 32.0677 68.0339 31.7734 68.2344 31.5234C68.4349 31.2708 68.5833 31.0339 68.6797 30.8125C68.7786 30.5885 68.8281 30.3542 68.8281 30.1094C68.8281 29.8281 68.7604 29.5846 68.625 29.3789C68.4922 29.1732 68.3099 29.0143 68.0781 28.9023C67.8464 28.7904 67.5859 28.7344 67.2969 28.7344C66.9896 28.7344 66.7214 28.7982 66.4922 28.9258C66.2656 29.0508 66.0898 29.2266 65.9648 29.4531C65.8424 29.6797 65.7813 29.9453 65.7813 30.25H64.8594C64.8594 29.7812 64.9674 29.3698 65.1836 29.0156C65.3997 28.6615 65.694 28.3854 66.0664 28.1875C66.4414 27.9896 66.862 27.8906 67.3281 27.8906C67.7969 27.8906 68.2122 27.9896 68.5742 28.1875C68.9362 28.3854 69.2201 28.6523 69.4258 28.9883C69.6315 29.3242 69.7344 29.6979 69.7344 30.1094C69.7344 30.4036 69.681 30.6914 69.5742 30.9727C69.4701 31.2513 69.2878 31.5625 69.0273 31.9062C68.7695 32.2474 68.4115 32.6641 67.9531 33.1562L66.1563 35.0781V35.1406H69.875V36H64.8281ZM71.4883 36V35.2969L74.1289 32.4062C74.4388 32.0677 74.694 31.7734 74.8945 31.5234C75.0951 31.2708 75.2435 31.0339 75.3398 30.8125C75.4388 30.5885 75.4883 30.3542 75.4883 30.1094C75.4883 29.8281 75.4206 29.5846 75.2852 29.3789C75.1523 29.1732 74.9701 29.0143 74.7383 28.9023C74.5065 28.7904 74.2461 28.7344 73.957 28.7344C73.6497 28.7344 73.3815 28.7982 73.1523 28.9258C72.9258 29.0508 72.75 29.2266 72.625 29.4531C72.5026 29.6797 72.4414 29.9453 72.4414 30.25H71.5195C71.5195 29.7812 71.6276 29.3698 71.8438 29.0156C72.0599 28.6615 72.3542 28.3854 72.7266 28.1875C73.1016 27.9896 73.5221 27.8906 73.9883 27.8906C74.457 27.8906 74.8724 27.9896 75.2344 28.1875C75.5964 28.3854 75.8802 28.6523 76.0859 28.9883C76.2917 29.3242 76.3945 29.6979 76.3945 30.1094C76.3945 30.4036 76.3411 30.6914 76.2344 30.9727C76.1302 31.2513 75.9479 31.5625 75.6875 31.9062C75.4297 32.2474 75.0716 32.6641 74.6133 33.1562L72.8164 35.0781V35.1406H76.5352V36H71.4883ZM80.7578 36.1094C80.1693 36.1094 79.668 35.9492 79.2539 35.6289C78.8398 35.306 78.5234 34.8385 78.3047 34.2266C78.0859 33.612 77.9766 32.8698 77.9766 32C77.9766 31.1354 78.0859 30.3971 78.3047 29.7852C78.526 29.1706 78.8438 28.7018 79.2578 28.3789C79.6745 28.0534 80.1745 27.8906 80.7578 27.8906C81.3411 27.8906 81.8398 28.0534 82.2539 28.3789C82.6706 28.7018 82.9883 29.1706 83.207 29.7852C83.4284 30.3971 83.5391 31.1354 83.5391 32C83.5391 32.8698 83.4297 33.612 83.2109 34.2266C82.9922 34.8385 82.6758 35.306 82.2617 35.6289C81.8477 35.9492 81.3464 36.1094 80.7578 36.1094ZM80.7578 35.25C81.3411 35.25 81.7943 34.9687 82.1172 34.4062C82.4401 33.8437 82.6016 33.0417 82.6016 32C82.6016 31.3073 82.5273 30.7174 82.3789 30.2305C82.2331 29.7435 82.0221 29.3724 81.7461 29.1172C81.4727 28.862 81.1432 28.7344 80.7578 28.7344C80.1797 28.7344 79.7279 29.0195 79.4023 29.5898C79.0768 30.1576 78.9141 30.9609 78.9141 32C78.9141 32.6927 78.987 33.2812 79.1328 33.7656C79.2786 34.25 79.4883 34.6185 79.7617 34.8711C80.0378 35.1237 80.3698 35.25 80.7578 35.25ZM87.9453 36V35.1406H89.6172V35.0781C89.1016 34.7422 88.694 34.2982 88.3945 33.7461C88.0951 33.194 87.9453 32.5391 87.9453 31.7812C87.9453 31.2109 88.0313 30.6888 88.2031 30.2148C88.3776 29.7383 88.6224 29.3268 88.9375 28.9805C89.2526 28.6341 89.625 28.3659 90.0547 28.1758C90.487 27.9857 90.9609 27.8906 91.4766 27.8906C91.9922 27.8906 92.4648 27.9857 92.8945 28.1758C93.3268 28.3659 93.7005 28.6341 94.0156 28.9805C94.3307 29.3268 94.5742 29.7383 94.7461 30.2148C94.9206 30.6888 95.0078 31.2109 95.0078 31.7812C95.0078 32.5391 94.8581 33.194 94.5586 33.7461C94.2591 34.2982 93.8516 34.7422 93.3359 35.0781V35.1406H95.0078V36H92.1641V34.9062C92.5078 34.7604 92.8242 34.5378 93.1133 34.2383C93.4023 33.9362 93.6341 33.5768 93.8086 33.1602C93.9831 32.7409 94.0703 32.2812 94.0703 31.7812C94.0703 31.224 93.9596 30.7201 93.7383 30.2695C93.5169 29.819 93.2109 29.4609 92.8203 29.1953C92.4297 28.9297 91.9818 28.7969 91.4766 28.7969C91.099 28.7969 90.7513 28.8737 90.4336 29.0273C90.1159 29.1784 89.8411 29.3906 89.6094 29.6641C89.3802 29.9349 89.2018 30.2513 89.0742 30.6133C88.9466 30.9727 88.8828 31.362 88.8828 31.7812C88.8828 32.2812 88.9701 32.7409 89.1445 33.1602C89.319 33.5768 89.5508 33.9362 89.8398 34.2383C90.1289 34.5378 90.4453 34.7604 90.7891 34.9062V36H87.9453Z" fill="black"/>
<path d="M30 130V160" stroke="#FF0000" stroke-width="2" stroke-linecap="square"/>
<path d="M22 152H38M30 152L38 137H22L30 152Z" stroke="#FF0000" stroke-width="2" stroke-linecap="square"/>
<path d="M41 148L49 156M50 157L48 153L46 155L50 157ZM50 157L48 153" stroke="#FF0000" stroke-width="2" stroke-linecap="square"/>
<path d="M34 154L42 162M43 163L41 159L39 161L43 163ZM43 163L41 159" stroke="#FF0000" stroke-width="2" stroke-linecap="square"/>
</g>
<defs>
<clipPath id="clip0_2_3">
<rect width="400" height="280" fill="white"/>
</clipPath>
</defs>
</svg>
