<svg width="620" height="280" viewBox="0 0 620 280" fill="none" xmlns="http://www.w3.org/2000/svg">
<g clip-path="url(#clip0_2_88)">
<path d="M440 210H455" stroke="#6495ED" stroke-width="2" stroke-linecap="square"/>
<path d="M495 210H510" stroke="#6495ED" stroke-width="2" stroke-linecap="square"/>
<path d="M455 210H457L460 203L466 217L472 203L478 217L484 203L490 217L493 210H495" stroke="#6495ED" stroke-width="2" stroke-linecap="square"/>
<path d="M459.828 196V195.297L462.469 192.406C462.779 192.068 463.034 191.773 463.234 191.523C463.435 191.271 463.583 191.034 463.68 190.812C463.779 190.589 463.828 190.354 463.828 190.109C463.828 189.828 463.76 189.585 463.625 189.379C463.492 189.173 463.31 189.014 463.078 188.902C462.846 188.79 462.586 188.734 462.297 188.734C461.99 188.734 461.721 188.798 461.492 188.926C461.266 189.051 461.09 189.227 460.965 189.453C460.842 189.68 460.781 189.945 460.781 190.25H459.859C459.859 189.781 459.967 189.37 460.184 189.016C460.4 188.661 460.694 188.385 461.066 188.187C461.441 187.99 461.862 187.891 462.328 187.891C462.797 187.891 463.212 187.99 463.574 188.187C463.936 188.385 464.22 188.652 464.426 188.988C464.632 189.324 464.734 189.698 464.734 190.109C464.734 190.404 464.681 190.691 464.574 190.973C464.47 191.251 464.288 191.562 464.027 191.906C463.77 192.247 463.411 192.664 462.953 193.156L461.156 195.078V195.141H464.875V196H459.828ZM466.488 196V195.297L469.129 192.406C469.439 192.068 469.694 191.773 469.895 191.523C470.095 191.271 470.243 191.034 470.34 190.812C470.439 190.589 470.488 190.354 470.488 190.109C470.488 189.828 470.421 189.585 470.285 189.379C470.152 189.173 469.97 189.014 469.738 188.902C469.507 188.79 469.246 188.734 468.957 188.734C468.65 188.734 468.382 188.798 468.152 188.926C467.926 189.051 467.75 189.227 467.625 189.453C467.503 189.68 467.441 189.945 467.441 190.25H466.52C466.52 189.781 466.628 189.37 466.844 189.016C467.06 188.661 467.354 188.385 467.727 188.187C468.102 187.99 468.522 187.891 468.988 187.891C469.457 187.891 469.872 187.99 470.234 188.187C470.596 188.385 470.88 188.652 471.086 188.988C471.292 189.324 471.395 189.698 471.395 190.109C471.395 190.404 471.341 190.691 471.234 190.973C471.13 191.251 470.948 191.562 470.688 191.906C470.43 192.247 470.072 192.664 469.613 193.156L467.816 195.078V195.141H471.535V196H466.488ZM475.758 196.109C475.169 196.109 474.668 195.949 474.254 195.629C473.84 195.306 473.523 194.839 473.305 194.227C473.086 193.612 472.977 192.87 472.977 192C472.977 191.135 473.086 190.397 473.305 189.785C473.526 189.171 473.844 188.702 474.258 188.379C474.674 188.053 475.174 187.891 475.758 187.891C476.341 187.891 476.84 188.053 477.254 188.379C477.671 188.702 477.988 189.171 478.207 189.785C478.428 190.397 478.539 191.135 478.539 192C478.539 192.87 478.43 193.612 478.211 194.227C477.992 194.839 477.676 195.306 477.262 195.629C476.848 195.949 476.346 196.109 475.758 196.109ZM475.758 195.25C476.341 195.25 476.794 194.969 477.117 194.406C477.44 193.844 477.602 193.042 477.602 192C477.602 191.307 477.527 190.717 477.379 190.23C477.233 189.743 477.022 189.372 476.746 189.117C476.473 188.862 476.143 188.734 475.758 188.734C475.18 188.734 474.728 189.02 474.402 189.59C474.077 190.158 473.914 190.961 473.914 192C473.914 192.693 473.987 193.281 474.133 193.766C474.279 194.25 474.488 194.618 474.762 194.871C475.038 195.124 475.37 195.25 475.758 195.25ZM482.945 196V195.141H484.617V195.078C484.102 194.742 483.694 194.298 483.395 193.746C483.095 193.194 482.945 192.539 482.945 191.781C482.945 191.211 483.031 190.689 483.203 190.215C483.378 189.738 483.622 189.327 483.937 188.98C484.253 188.634 484.625 188.366 485.055 188.176C485.487 187.986 485.961 187.891 486.477 187.891C486.992 187.891 487.465 187.986 487.895 188.176C488.327 188.366 488.701 188.634 489.016 188.98C489.331 189.327 489.574 189.738 489.746 190.215C489.921 190.689 490.008 191.211 490.008 191.781C490.008 192.539 489.858 193.194 489.559 193.746C489.259 194.298 488.852 194.742 488.336 195.078V195.141H490.008V196H487.164V194.906C487.508 194.76 487.824 194.538 488.113 194.238C488.402 193.936 488.634 193.577 488.809 193.16C488.983 192.741 489.07 192.281 489.07 191.781C489.07 191.224 488.96 190.72 488.738 190.27C488.517 189.819 488.211 189.461 487.82 189.195C487.43 188.93 486.982 188.797 486.477 188.797C486.099 188.797 485.751 188.874 485.434 189.027C485.116 189.178 484.841 189.391 484.609 189.664C484.38 189.935 484.202 190.251 484.074 190.613C483.947 190.973 483.883 191.362 483.883 191.781C483.883 192.281 483.97 192.741 484.145 193.16C484.319 193.577 484.551 193.936 484.84 194.238C485.129 194.538 485.445 194.76 485.789 194.906V196H482.945Z" fill="#6495ED"/>
<path d="M440 180H455" stroke="#228B22" stroke-width="2" stroke-linecap="square"/>
<path d="M495 180H510" stroke="#228B22" stroke-width="2" stroke-linecap="square"/>
<path d="M455 180H457L460 173L466 187L472 173L478 187L484 173L490 187L493 180H495" stroke="#228B22" stroke-width="2" stroke-linecap="square"/>
<path d="M459.828 166V165.297L462.469 162.406C462.779 162.068 463.034 161.773 463.234 161.523C463.435 161.271 463.583 161.034 463.68 160.812C463.779 160.589 463.828 160.354 463.828 160.109C463.828 159.828 463.76 159.585 463.625 159.379C463.492 159.173 463.31 159.014 463.078 158.902C462.846 158.79 462.586 158.734 462.297 158.734C461.99 158.734 461.721 158.798 461.492 158.926C461.266 159.051 461.09 159.227 460.965 159.453C460.842 159.68 460.781 159.945 460.781 160.25H459.859C459.859 159.781 459.967 159.37 460.184 159.016C460.4 158.661 460.694 158.385 461.066 158.187C461.441 157.99 461.862 157.891 462.328 157.891C462.797 157.891 463.212 157.99 463.574 158.187C463.936 158.385 464.22 158.652 464.426 158.988C464.632 159.324 464.734 159.698 464.734 160.109C464.734 160.404 464.681 160.691 464.574 160.973C464.47 161.251 464.288 161.562 464.027 161.906C463.77 162.247 463.411 162.664 462.953 163.156L461.156 165.078V165.141H464.875V166H459.828ZM466.488 166V165.297L469.129 162.406C469.439 162.068 469.694 161.773 469.895 161.523C470.095 161.271 470.243 161.034 470.34 160.812C470.439 160.589 470.488 160.354 470.488 160.109C470.488 159.828 470.421 159.585 470.285 159.379C470.152 159.173 469.97 159.014 469.738 158.902C469.507 158.79 469.246 158.734 468.957 158.734C468.65 158.734 468.382 158.798 468.152 158.926C467.926 159.051 467.75 159.227 467.625 159.453C467.503 159.68 467.441 159.945 467.441 160.25H466.52C466.52 159.781 466.628 159.37 466.844 159.016C467.06 158.661 467.354 158.385 467.727 158.187C468.102 157.99 468.522 157.891 468.988 157.891C469.457 157.891 469.872 157.99 470.234 158.187C470.596 158.385 470.88 158.652 471.086 158.988C471.292 159.324 471.395 159.698 471.395 160.109C471.395 160.404 471.341 160.691 471.234 160.973C471.13 161.251 470.948 161.562 470.688 161.906C470.43 162.247 470.072 162.664 469.613 163.156L467.816 165.078V165.141H471.535V166H466.488ZM475.758 166.109C475.169 166.109 474.668 165.949 474.254 165.629C473.84 165.306 473.523 164.839 473.305 164.227C473.086 163.612 472.977 162.87 472.977 162C472.977 161.135 473.086 160.397 473.305 159.785C473.526 159.171 473.844 158.702 474.258 158.379C474.674 158.053 475.174 157.891 475.758 157.891C476.341 157.891 476.84 158.053 477.254 158.379C477.671 158.702 477.988 159.171 478.207 159.785C478.428 160.397 478.539 161.135 478.539 162C478.539 162.87 478.43 163.612 478.211 164.227C477.992 164.839 477.676 165.306 477.262 165.629C476.848 165.949 476.346 166.109 475.758 166.109ZM475.758 165.25C476.341 165.25 476.794 164.969 477.117 164.406C477.44 163.844 477.602 163.042 477.602 162C477.602 161.307 477.527 160.717 477.379 160.23C477.233 159.743 477.022 159.372 476.746 159.117C476.473 158.862 476.143 158.734 475.758 158.734C475.18 158.734 474.728 159.02 474.402 159.59C474.077 160.158 473.914 160.961 473.914 162C473.914 162.693 473.987 163.281 474.133 163.766C474.279 164.25 474.488 164.618 474.762 164.871C475.038 165.124 475.37 165.25 475.758 165.25ZM482.945 166V165.141H484.617V165.078C484.102 164.742 483.694 164.298 483.395 163.746C483.095 163.194 482.945 162.539 482.945 161.781C482.945 161.211 483.031 160.689 483.203 160.215C483.378 159.738 483.622 159.327 483.937 158.98C484.253 158.634 484.625 158.366 485.055 158.176C485.487 157.986 485.961 157.891 486.477 157.891C486.992 157.891 487.465 157.986 487.895 158.176C488.327 158.366 488.701 158.634 489.016 158.98C489.331 159.327 489.574 159.738 489.746 160.215C489.921 160.689 490.008 161.211 490.008 161.781C490.008 162.539 489.858 163.194 489.559 163.746C489.259 164.298 488.852 164.742 488.336 165.078V165.141H490.008V166H487.164V164.906C487.508 164.76 487.824 164.538 488.113 164.238C488.402 163.936 488.634 163.577 488.809 163.16C488.983 162.741 489.07 162.281 489.07 161.781C489.07 161.224 488.96 160.72 488.738 160.27C488.517 159.819 488.211 159.461 487.82 159.195C487.43 158.93 486.982 158.797 486.477 158.797C486.099 158.797 485.751 158.874 485.434 159.027C485.116 159.178 484.841 159.391 484.609 159.664C484.38 159.935 484.202 160.251 484.074 160.613C483.947 160.973 483.883 161.362 483.883 161.781C483.883 162.281 483.97 162.741 484.145 163.16C484.319 163.577 484.551 163.936 484.84 164.238C485.129 164.538 485.445 164.76 485.789 164.906V166H482.945Z" fill="#228B22"/>
<path d="M440 150H455" stroke="#FF0000" stroke-width="2" stroke-linecap="square"/>
<path d="M495 150H510" stroke="#FF0000" stroke-width="2" stroke-linecap="square"/>
<path d="M455 150H457L460 143L466 157L472 143L478 157L484 143L490 157L493 150H495" stroke="#FF0000" stroke-width="2" stroke-linecap="square"/>
<path d="M459.828 136V135.297L462.469 132.406C462.779 132.068 463.034 131.773 463.234 131.523C463.435 131.271 463.583 131.034 463.68 130.812C463.779 130.589 463.828 130.354 463.828 130.109C463.828 129.828 463.76 129.585 463.625 129.379C463.492 129.173 463.31 129.014 463.078 128.902C462.846 128.79 462.586 128.734 462.297 128.734C461.99 128.734 461.721 128.798 461.492 128.926C461.266 129.051 461.09 129.227 460.965 129.453C460.842 129.68 460.781 129.945 460.781 130.25H459.859C459.859 129.781 459.967 129.37 460.184 129.016C460.4 128.661 460.694 128.385 461.066 128.187C461.441 127.99 461.862 127.891 462.328 127.891C462.797 127.891 463.212 127.99 463.574 128.187C463.936 128.385 464.22 128.652 464.426 128.988C464.632 129.324 464.734 129.698 464.734 130.109C464.734 130.404 464.681 130.691 464.574 130.973C464.47 131.251 464.288 131.562 464.027 131.906C463.77 132.247 463.411 132.664 462.953 133.156L461.156 135.078V135.141H464.875V136H459.828ZM466.488 136V135.297L469.129 132.406C469.439 132.068 469.694 131.773 469.895 131.523C470.095 131.271 470.243 131.034 470.34 130.812C470.439 130.589 470.488 130.354 470.488 130.109C470.488 129.828 470.421 129.585 470.285 129.379C470.152 129.173 469.97 129.014 469.738 128.902C469.507 128.79 469.246 128.734 468.957 128.734C468.65 128.734 468.382 128.798 468.152 128.926C467.926 129.051 467.75 129.227 467.625 129.453C467.503 129.68 467.441 129.945 467.441 130.25H466.52C466.52 129.781 466.628 129.37 466.844 129.016C467.06 128.661 467.354 128.385 467.727 128.187C468.102 127.99 468.522 127.891 468.988 127.891C469.457 127.891 469.872 127.99 470.234 128.187C470.596 128.385 470.88 128.652 471.086 128.988C471.292 129.324 471.395 129.698 471.395 130.109C471.395 130.404 471.341 130.691 471.234 130.973C471.13 131.251 470.948 131.562 470.688 131.906C470.43 132.247 470.072 132.664 469.613 133.156L467.816 135.078V135.141H471.535V136H466.488ZM475.758 136.109C475.169 136.109 474.668 135.949 474.254 135.629C473.84 135.306 473.523 134.839 473.305 134.227C473.086 133.612 472.977 132.87 472.977 132C472.977 131.135 473.086 130.397 473.305 129.785C473.526 129.171 473.844 128.702 474.258 128.379C474.674 128.053 475.174 127.891 475.758 127.891C476.341 127.891 476.84 128.053 477.254 128.379C477.671 128.702 477.988 129.171 478.207 129.785C478.428 130.397 478.539 131.135 478.539 132C478.539 132.87 478.43 133.612 478.211 134.227C477.992 134.839 477.676 135.306 477.262 135.629C476.848 135.949 476.346 136.109 475.758 136.109ZM475.758 135.25C476.341 135.25 476.794 134.969 477.117 134.406C477.44 133.844 477.602 133.042 477.602 132C477.602 131.307 477.527 130.717 477.379 130.23C477.233 129.743 477.022 129.372 476.746 129.117C476.473 128.862 476.143 128.734 475.758 128.734C475.18 128.734 474.728 129.02 474.402 129.59C474.077 130.158 473.914 130.961 473.914 132C473.914 132.693 473.987 133.281 474.133 133.766C474.279 134.25 474.488 134.618 474.762 134.871C475.038 135.124 475.37 135.25 475.758 135.25ZM482.945 136V135.141H484.617V135.078C484.102 134.742 483.694 134.298 483.395 133.746C483.095 133.194 482.945 132.539 482.945 131.781C482.945 131.211 483.031 130.689 483.203 130.215C483.378 129.738 483.622 129.327 483.937 128.98C484.253 128.634 484.625 128.366 485.055 128.176C485.487 127.986 485.961 127.891 486.477 127.891C486.992 127.891 487.465 127.986 487.895 128.176C488.327 128.366 488.701 128.634 489.016 128.98C489.331 129.327 489.574 129.738 489.746 130.215C489.921 130.689 490.008 131.211 490.008 131.781C490.008 132.539 489.858 133.194 489.559 133.746C489.259 134.298 488.852 134.742 488.336 135.078V135.141H490.008V136H487.164V134.906C487.508 134.76 487.824 134.538 488.113 134.238C488.402 133.936 488.634 133.577 488.809 133.16C488.983 132.741 489.07 132.281 489.07 131.781C489.07 131.224 488.96 130.72 488.738 130.27C488.517 129.819 488.211 129.461 487.82 129.195C487.43 128.93 486.982 128.797 486.477 128.797C486.099 128.797 485.751 128.874 485.434 129.027C485.116 129.178 484.841 129.391 484.609 129.664C484.38 129.935 484.202 130.251 484.074 130.613C483.947 130.973 483.883 131.362 483.883 131.781C483.883 132.281 483.97 132.741 484.145 133.16C484.319 133.577 484.551 133.936 484.84 134.238C485.129 134.538 485.445 134.76 485.789 134.906V136H482.945Z" fill="#FF0000"/>
<path d="M350 180H420" stroke="#6495ED" stroke-width="2" stroke-linecap="square"/>
<path d="M420 180V210" stroke="#6495ED" stroke-width="2" stroke-linecap="square"/>
<path d="M420 210H440" stroke="#6495ED" stroke-width="2" stroke-linecap="square"/>
<path d="M350 160H440" stroke="#228B22" stroke-width="2" stroke-linecap="square"/>
<path d="M440 160V180" stroke="#228B22" stroke-width="2" stroke-linecap="square"/>
<path d="M350 150H440" stroke="#FF0000" stroke-width="2" stroke-linecap="square"/>
<path d="M100 250H105" stroke="black" stroke-width="2" stroke-linecap="square"/>
<path d="M394 160V157L399 160L394 163V160Z" fill="#228B22" stroke="#228B22" stroke-width="2" stroke-linecap="square"/>
<path d="M394 149V146L399 149L394 152V149Z" fill="#FF0000" stroke="#FF0000" stroke-width="2" stroke-linecap="square"/>
<path d="M393 180V177L398 180L393 183V180Z" fill="#6495ED" stroke="#6495ED" stroke-width="2" stroke-linecap="square"/>
<path d="M20 130H90" stroke="black" stroke-width="2" stroke-linecap="square"/>
<path d="M20 130V250" stroke="black" stroke-width="2" stroke-linecap="square"/>
<path d="M20 250H590" stroke="black" stroke-width="2" stroke-linecap="square"/>
<path d="M590 180V250" stroke="black" stroke-width="2" stroke-linecap="square"/>
<path d="M552 142V158M552 150L537 158V142L552 150Z" stroke="black" stroke-width="2" stroke-linecap="square"/>
<path d="M548 139L556 131M557 130L553 132L555 134L557 130ZM557 130L553 132" stroke="black" stroke-width="2" stroke-linecap="square"/>
<path d="M554 146L562 138M563 137L559 139L561 141L563 137ZM563 137L559 139" stroke="black" stroke-width="2" stroke-linecap="square"/>
<path d="M552 202V218M552 210L537 218V202L552 210Z" stroke="black" stroke-width="2" stroke-linecap="square"/>
<path d="M548 199L556 191M557 190L553 192L555 194L557 190ZM557 190L553 192" stroke="black" stroke-width="2" stroke-linecap="square"/>
<path d="M554 206L562 198M563 197L559 199L561 201L563 197ZM563 197L559 199" stroke="black" stroke-width="2" stroke-linecap="square"/>
<path d="M552 172V188M552 180L537 188V172L552 180Z" stroke="black" stroke-width="2" stroke-linecap="square"/>
<path d="M548 169L556 161M557 160L553 162L555 164L557 160ZM557 160L553 162" stroke="black" stroke-width="2" stroke-linecap="square"/>
<path d="M554 176L562 168M563 167L559 169L561 171L563 167ZM563 167L559 169" stroke="black" stroke-width="2" stroke-linecap="square"/>
<path d="M570 180H590" stroke="black" stroke-width="2" stroke-linecap="square"/>
<path d="M570 150V210" stroke="black" stroke-width="2" stroke-linecap="square"/>
<path d="M570 182C571.105 182 572 181.105 572 180C572 178.895 571.105 178 570 178C568.895 178 568 178.895 568 180C568 181.105 568.895 182 570 182Z" stroke="black" stroke-width="2"/>
<path d="M510 150H570" stroke="black" stroke-width="2" stroke-linecap="square"/>
<path d="M510 180H570" stroke="black" stroke-width="2" stroke-linecap="square"/>
<path d="M510 210H570" stroke="black" stroke-width="2" stroke-linecap="square"/>
<path d="M280 25H160V220H280V25Z" stroke="black" stroke-width="2"/>
<path d="M197.297 55H196.281L199.219 47H200.219L203.156 55H202.141L199.75 48.2656H199.688L197.297 55ZM197.672 51.875H201.766V52.7344H197.672V51.875ZM204.402 55V47H207.105C207.73 47 208.243 47.1068 208.645 47.3203C209.046 47.5312 209.342 47.8216 209.535 48.1914C209.728 48.5612 209.824 48.9818 209.824 49.4531C209.824 49.9245 209.728 50.3424 209.535 50.707C209.342 51.0716 209.047 51.3581 208.648 51.5664C208.25 51.7721 207.741 51.875 207.121 51.875H204.934V51H207.09C207.517 51 207.861 50.9375 208.121 50.8125C208.384 50.6875 208.574 50.5104 208.691 50.2812C208.811 50.0495 208.871 49.7734 208.871 49.4531C208.871 49.1328 208.811 48.8529 208.691 48.6133C208.572 48.3737 208.38 48.1888 208.117 48.0586C207.854 47.9258 207.507 47.8594 207.074 47.8594H205.371V55H204.402ZM208.168 51.4062L210.137 55H209.012L207.074 51.4062H208.168ZM213.907 55H211.438V47H214.017C214.793 47 215.457 47.1602 216.009 47.4805C216.561 47.7982 216.984 48.2552 217.278 48.8516C217.573 49.4453 217.72 50.1562 217.72 50.9844C217.72 51.8177 217.571 52.5352 217.274 53.1367C216.978 53.7357 216.545 54.1966 215.978 54.5195C215.41 54.8398 214.72 55 213.907 55ZM212.407 54.1406H213.845C214.506 54.1406 215.054 54.013 215.489 53.7578C215.924 53.5026 216.248 53.1393 216.462 52.668C216.675 52.1966 216.782 51.6354 216.782 50.9844C216.782 50.3385 216.677 49.7826 216.466 49.3164C216.255 48.8477 215.94 48.4883 215.521 48.2383C215.101 47.9857 214.579 47.8594 213.954 47.8594H212.407V54.1406ZM224.595 47H225.563V52.2969C225.563 52.8437 225.435 53.332 225.177 53.7617C224.922 54.1888 224.561 54.526 224.095 54.7734C223.629 55.0182 223.082 55.1406 222.454 55.1406C221.826 55.1406 221.28 55.0182 220.813 54.7734C220.347 54.526 219.985 54.1888 219.728 53.7617C219.472 53.332 219.345 52.8437 219.345 52.2969V47H220.313V52.2188C220.313 52.6094 220.399 52.957 220.571 53.2617C220.743 53.5638 220.988 53.8021 221.306 53.9766C221.626 54.1484 222.009 54.2344 222.454 54.2344C222.899 54.2344 223.282 54.1484 223.603 53.9766C223.923 53.8021 224.168 53.5638 224.337 53.2617C224.509 52.957 224.595 52.6094 224.595 52.2188V47ZM228.467 47V55H227.498V47H228.467ZM236.753 47V55H235.815L231.456 48.7187H231.378V55H230.409V47H231.347L235.722 53.2969H235.8V47H236.753ZM245.441 51C245.441 51.8437 245.289 52.5729 244.984 53.1875C244.68 53.8021 244.262 54.276 243.73 54.6094C243.199 54.9427 242.592 55.1094 241.91 55.1094C241.228 55.1094 240.621 54.9427 240.09 54.6094C239.559 54.276 239.141 53.8021 238.836 53.1875C238.531 52.5729 238.379 51.8437 238.379 51C238.379 50.1562 238.531 49.4271 238.836 48.8125C239.141 48.1979 239.559 47.724 240.09 47.3906C240.621 47.0573 241.228 46.8906 241.91 46.8906C242.592 46.8906 243.199 47.0573 243.73 47.3906C244.262 47.724 244.68 48.1979 244.984 48.8125C245.289 49.4271 245.441 50.1562 245.441 51ZM244.504 51C244.504 50.3073 244.388 49.7227 244.156 49.2461C243.927 48.7695 243.616 48.4089 243.223 48.1641C242.832 47.9193 242.395 47.7969 241.91 47.7969C241.426 47.7969 240.987 47.9193 240.594 48.1641C240.203 48.4089 239.892 48.7695 239.66 49.2461C239.431 49.7227 239.316 50.3073 239.316 51C239.316 51.6927 239.431 52.2773 239.66 52.7539C239.892 53.2305 240.203 53.5911 240.594 53.8359C240.987 54.0807 241.426 54.2031 241.91 54.2031C242.395 54.2031 242.832 54.0807 243.223 53.8359C243.616 53.5911 243.927 53.2305 244.156 52.7539C244.388 52.2773 244.504 51.6927 244.504 51Z" fill="black"/>
<path d="M209.219 57H210.188V62.2969C210.188 62.8437 210.059 63.332 209.801 63.7617C209.546 64.1888 209.185 64.526 208.719 64.7734C208.253 65.0182 207.706 65.1406 207.078 65.1406C206.451 65.1406 205.904 65.0182 205.438 64.7734C204.971 64.526 204.609 64.1888 204.352 63.7617C204.096 63.332 203.969 62.8437 203.969 62.2969V57H204.938V62.2188C204.938 62.6094 205.023 62.957 205.195 63.2617C205.367 63.5638 205.612 63.8021 205.93 63.9766C206.25 64.1484 206.633 64.2344 207.078 64.2344C207.523 64.2344 207.906 64.1484 208.227 63.9766C208.547 63.8021 208.792 63.5638 208.961 63.2617C209.133 62.957 209.219 62.6094 209.219 62.2188V57ZM218.466 57V65H217.528L213.169 58.7187H213.091V65H212.122V57H213.06L217.435 63.2969H217.513V57H218.466ZM227.154 61C227.154 61.8437 227.002 62.5729 226.697 63.1875C226.393 63.8021 225.975 64.276 225.443 64.6094C224.912 64.9427 224.305 65.1094 223.623 65.1094C222.941 65.1094 222.334 64.9427 221.803 64.6094C221.271 64.276 220.854 63.8021 220.549 63.1875C220.244 62.5729 220.092 61.8437 220.092 61C220.092 60.1562 220.244 59.4271 220.549 58.8125C220.854 58.1979 221.271 57.724 221.803 57.3906C222.334 57.0573 222.941 56.8906 223.623 56.8906C224.305 56.8906 224.912 57.0573 225.443 57.3906C225.975 57.724 226.393 58.1979 226.697 58.8125C227.002 59.4271 227.154 60.1562 227.154 61ZM226.217 61C226.217 60.3073 226.101 59.7227 225.869 59.2461C225.64 58.7695 225.329 58.4089 224.936 58.1641C224.545 57.9193 224.107 57.7969 223.623 57.7969C223.139 57.7969 222.7 57.9193 222.307 58.1641C221.916 58.4089 221.605 58.7695 221.373 59.2461C221.144 59.7227 221.029 60.3073 221.029 61C221.029 61.6927 221.144 62.2773 221.373 62.7539C221.605 63.2305 221.916 63.5911 222.307 63.8359C222.7 64.0807 223.139 64.2031 223.623 64.2031C224.107 64.2031 224.545 64.0807 224.936 63.8359C225.329 63.5911 225.64 63.2305 225.869 62.7539C226.101 62.2773 226.217 61.6927 226.217 61ZM231.752 65V59H232.643V59.9062H232.705C232.814 59.6094 233.012 59.3685 233.299 59.1836C233.585 58.9987 233.908 58.9062 234.268 58.9062C234.335 58.9062 234.42 58.9076 234.521 58.9102C234.623 58.9128 234.7 58.9167 234.752 58.9219V59.8594C234.721 59.8516 234.649 59.8398 234.537 59.8242C234.428 59.806 234.312 59.7969 234.189 59.7969C233.898 59.7969 233.637 59.8581 233.408 59.9805C233.182 60.1003 233.002 60.2669 232.869 60.4805C232.739 60.6914 232.674 60.9323 232.674 61.2031V65H231.752ZM238.532 65.1094C238.017 65.1094 237.557 65.0208 237.153 64.8437C236.752 64.6667 236.433 64.4206 236.196 64.1055C235.962 63.7878 235.834 63.4193 235.813 63H236.798C236.819 63.2578 236.907 63.4805 237.063 63.668C237.22 63.8529 237.424 63.9961 237.677 64.0977C237.929 64.1992 238.209 64.25 238.517 64.25C238.86 64.25 239.165 64.1901 239.431 64.0703C239.696 63.9505 239.905 63.7839 240.056 63.5703C240.207 63.3568 240.282 63.1094 240.282 62.8281C240.282 62.5339 240.209 62.2747 240.063 62.0508C239.918 61.8242 239.704 61.6471 239.423 61.5195C239.142 61.3919 238.798 61.3281 238.392 61.3281H237.751V60.4687H238.392C238.709 60.4687 238.988 60.4115 239.228 60.2969C239.47 60.1823 239.659 60.0208 239.794 59.8125C239.932 59.6042 240.001 59.3594 240.001 59.0781C240.001 58.8073 239.941 58.5716 239.821 58.3711C239.701 58.1706 239.532 58.0143 239.313 57.9023C239.097 57.7904 238.842 57.7344 238.548 57.7344C238.272 57.7344 238.011 57.7852 237.767 57.8867C237.524 57.9857 237.326 58.1302 237.173 58.3203C237.019 58.5078 236.936 58.7344 236.923 59H235.985C236.001 58.5807 236.127 58.2135 236.364 57.8984C236.601 57.5807 236.911 57.3333 237.294 57.1562C237.679 56.9792 238.103 56.8906 238.563 56.8906C239.058 56.8906 239.483 56.9909 239.837 57.1914C240.191 57.3893 240.463 57.651 240.653 57.9766C240.843 58.3021 240.938 58.6536 240.938 59.0313C240.938 59.4818 240.82 59.8659 240.583 60.1836C240.349 60.5013 240.03 60.7214 239.626 60.8438V60.9062C240.131 60.9896 240.526 61.2044 240.81 61.5508C241.093 61.8945 241.235 62.3203 241.235 62.8281C241.235 63.263 241.117 63.6536 240.88 64C240.646 64.3437 240.325 64.6146 239.919 64.8125C239.513 65.0104 239.05 65.1094 238.532 65.1094Z" fill="black"/>
<path d="M90 80H160" stroke="black" stroke-width="2" stroke-linecap="square"/>
<path d="M90 90H160" stroke="black" stroke-width="2" stroke-linecap="square"/>
<path d="M90 100H160" stroke="black" stroke-width="2" stroke-linecap="square"/>
<path d="M90 110H160" stroke="black" stroke-width="2" stroke-linecap="square"/>
<path d="M90 120H160" stroke="black" stroke-width="2" stroke-linecap="square"/>
<path d="M90 130H160" stroke="black" stroke-width="2" stroke-linecap="square"/>
<path d="M90 140H160" stroke="black" stroke-width="2" stroke-linecap="square"/>
<path d="M90 160H160" stroke="black" stroke-width="2" stroke-linecap="square"/>
<path d="M90 170H160" stroke="black" stroke-width="2" stroke-linecap="square"/>
<path d="M90 180H160" stroke="black" stroke-width="2" stroke-linecap="square"/>
<path d="M90 190H160" stroke="black" stroke-width="2" stroke-linecap="square"/>
<path d="M90 200H160" stroke="black" stroke-width="2" stroke-linecap="square"/>
<path d="M90 210H160" stroke="black" stroke-width="2" stroke-linecap="square"/>
<path d="M280 50H350" stroke="black" stroke-width="2" stroke-linecap="square"/>
<path d="M280 60H350" stroke="black" stroke-width="2" stroke-linecap="square"/>
<path d="M280 70H350" stroke="black" stroke-width="2" stroke-linecap="square"/>
<path d="M280 80H350" stroke="black" stroke-width="2" stroke-linecap="square"/>
<path d="M280 90H350" stroke="black" stroke-width="2" stroke-linecap="square"/>
<path d="M280 100H350" stroke="black" stroke-width="2" stroke-linecap="square"/>
<path d="M280 110H350" stroke="black" stroke-width="2" stroke-linecap="square"/>
<path d="M280 120H350" stroke="black" stroke-width="2" stroke-linecap="square"/>
<path d="M280 140H350" stroke="black" stroke-width="2" stroke-linecap="square"/>
<path d="M280 150H350" stroke="black" stroke-width="2" stroke-linecap="square"/>
<path d="M280 160H350" stroke="black" stroke-width="2" stroke-linecap="square"/>
<path d="M280 170H350" stroke="black" stroke-width="2" stroke-linecap="square"/>
<path d="M280 180H350" stroke="black" stroke-width="2" stroke-linecap="square"/>
<path d="M280 190H350" stroke="black" stroke-width="2" stroke-linecap="square"/>
<path d="M280 200H350" stroke="black" stroke-width="2" stroke-linecap="square"/>
<path d="M280 210H350" stroke="black" stroke-width="2" stroke-linecap="square"/>
<path d="M165.938 72V80H164.969V72H165.938ZM174.63 76C174.63 76.8437 174.478 77.5729 174.173 78.1875C173.868 78.8021 173.45 79.276 172.919 79.6094C172.388 79.9427 171.781 80.1094 171.099 80.1094C170.416 80.1094 169.81 79.9427 169.278 79.6094C168.747 79.276 168.329 78.8021 168.024 78.1875C167.72 77.5729 167.567 76.8437 167.567 76C167.567 75.1562 167.72 74.4271 168.024 73.8125C168.329 73.1979 168.747 72.724 169.278 72.3906C169.81 72.0573 170.416 71.8906 171.099 71.8906C171.781 71.8906 172.388 72.0573 172.919 72.3906C173.45 72.724 173.868 73.1979 174.173 73.8125C174.478 74.4271 174.63 75.1562 174.63 76ZM173.692 76C173.692 75.3073 173.576 74.7227 173.345 74.2461C173.116 73.7695 172.804 73.4089 172.411 73.1641C172.021 72.9193 171.583 72.7969 171.099 72.7969C170.614 72.7969 170.175 72.9193 169.782 73.1641C169.392 73.4089 169.08 73.7695 168.849 74.2461C168.619 74.7227 168.505 75.3073 168.505 76C168.505 76.6927 168.619 77.2773 168.849 77.7539C169.08 78.2305 169.392 78.5911 169.782 78.8359C170.175 79.0807 170.614 79.2031 171.099 79.2031C171.583 79.2031 172.021 79.0807 172.411 78.8359C172.804 78.5911 173.116 78.2305 173.345 77.7539C173.576 77.2773 173.692 76.6927 173.692 76ZM176.259 80V72H178.962C179.587 72 180.1 72.1068 180.501 72.3203C180.902 72.5312 181.199 72.8216 181.392 73.1914C181.584 73.5612 181.681 73.9818 181.681 74.4531C181.681 74.9245 181.584 75.3424 181.392 75.707C181.199 76.0716 180.903 76.3581 180.505 76.5664C180.106 76.7721 179.597 76.875 178.978 76.875H176.79V76H178.946C179.373 76 179.717 75.9375 179.978 75.8125C180.241 75.6875 180.431 75.5104 180.548 75.2812C180.668 75.0495 180.728 74.7734 180.728 74.4531C180.728 74.1328 180.668 73.8529 180.548 73.6133C180.428 73.3737 180.237 73.1888 179.974 73.0586C179.711 72.9258 179.363 72.8594 178.931 72.8594H177.228V80H176.259ZM180.024 76.4062L181.993 80H180.868L178.931 76.4062H180.024ZM183.295 80V72H188.123V72.8594H184.264V75.5625H187.873V76.4219H184.264V79.1406H188.186V80H183.295ZM189.869 80V72H194.666V72.8594H190.838V75.5625H194.307V76.4219H190.838V80H189.869Z" fill="black"/>
<path d="M164.969 90V82H167.672C168.297 82 168.81 82.1068 169.211 82.3203C169.612 82.5312 169.909 82.8216 170.102 83.1914C170.294 83.5612 170.391 83.9818 170.391 84.4531C170.391 84.9245 170.294 85.3424 170.102 85.707C169.909 86.0716 169.613 86.3581 169.215 86.5664C168.816 86.7721 168.307 86.875 167.688 86.875H165.5V86H167.656C168.083 86 168.427 85.9375 168.688 85.8125C168.951 85.6875 169.141 85.5104 169.258 85.2812C169.378 85.0495 169.438 84.7734 169.438 84.4531C169.438 84.1328 169.378 83.8529 169.258 83.6133C169.138 83.3737 168.947 83.1888 168.684 83.0586C168.421 82.9258 168.073 82.8594 167.641 82.8594H165.938V90H164.969ZM168.734 86.4062L170.703 90H169.578L167.641 86.4062H168.734ZM172.005 90V82H176.833V82.8594H172.974V85.5625H176.583V86.4219H172.974V89.1406H176.896V90H172.005ZM182.954 84C182.907 83.6042 182.717 83.2969 182.384 83.0781C182.05 82.8594 181.642 82.75 181.157 82.75C180.803 82.75 180.493 82.8073 180.228 82.9219C179.965 83.0365 179.759 83.194 179.61 83.3945C179.465 83.5951 179.392 83.8229 179.392 84.0781C179.392 84.2917 179.442 84.4753 179.544 84.6289C179.648 84.7799 179.781 84.9062 179.942 85.0078C180.104 85.1068 180.273 85.1888 180.45 85.2539C180.627 85.3164 180.79 85.3672 180.938 85.4062L181.751 85.625C181.959 85.6797 182.191 85.7552 182.446 85.8516C182.704 85.9479 182.95 86.0794 183.185 86.2461C183.422 86.4102 183.617 86.6211 183.771 86.8789C183.924 87.1367 184.001 87.4531 184.001 87.8281C184.001 88.2604 183.888 88.651 183.661 89C183.437 89.349 183.109 89.6263 182.677 89.832C182.247 90.0378 181.725 90.1406 181.11 90.1406C180.537 90.1406 180.041 90.0482 179.622 89.8633C179.205 89.6784 178.877 89.4206 178.638 89.0898C178.401 88.7591 178.267 88.375 178.235 87.9375H179.235C179.261 88.2396 179.363 88.4896 179.54 88.6875C179.72 88.8828 179.946 89.0286 180.22 89.125C180.496 89.2187 180.793 89.2656 181.11 89.2656C181.48 89.2656 181.812 89.2057 182.106 89.0859C182.401 88.9635 182.634 88.7943 182.806 88.5781C182.978 88.3594 183.063 88.1042 183.063 87.8125C183.063 87.5469 182.989 87.3307 182.841 87.1641C182.692 86.9974 182.497 86.862 182.255 86.7578C182.013 86.6536 181.751 86.5625 181.47 86.4844L180.485 86.2031C179.86 86.0234 179.366 85.7669 179.001 85.4336C178.636 85.1003 178.454 84.6641 178.454 84.125C178.454 83.6771 178.575 83.2865 178.817 82.9531C179.062 82.6172 179.39 82.3568 179.802 82.1719C180.216 81.9844 180.678 81.8906 181.188 81.8906C181.704 81.8906 182.162 81.9831 182.563 82.168C182.965 82.3503 183.282 82.6003 183.517 82.918C183.754 83.2357 183.879 83.5964 183.892 84H182.954ZM185.594 90V82H190.422V82.8594H186.563V85.5625H190.172V86.4219H186.563V89.1406H190.484V90H185.594ZM191.73 82.8594V82H197.73V82.8594H195.215V90H194.246V82.8594H191.73Z" fill="black"/>
<path d="M167.531 100.109C167.016 100.109 166.556 100.021 166.152 99.8437C165.751 99.6667 165.432 99.4206 165.195 99.1055C164.961 98.7878 164.833 98.4193 164.813 98H165.797C165.818 98.2578 165.906 98.4805 166.062 98.668C166.219 98.8529 166.423 98.9961 166.676 99.0977C166.928 99.1992 167.208 99.25 167.516 99.25C167.859 99.25 168.164 99.1901 168.43 99.0703C168.695 98.9505 168.904 98.7839 169.055 98.5703C169.206 98.3568 169.281 98.1094 169.281 97.8281C169.281 97.5339 169.208 97.2747 169.063 97.0508C168.917 96.8242 168.703 96.6471 168.422 96.5195C168.141 96.3919 167.797 96.3281 167.391 96.3281H166.75V95.4687H167.391C167.708 95.4687 167.987 95.4115 168.227 95.2969C168.469 95.1823 168.658 95.0208 168.793 94.8125C168.931 94.6042 169 94.3594 169 94.0781C169 93.8073 168.94 93.5716 168.82 93.3711C168.701 93.1706 168.531 93.0143 168.313 92.9023C168.096 92.7904 167.841 92.7344 167.547 92.7344C167.271 92.7344 167.01 92.7852 166.766 92.8867C166.523 92.9857 166.326 93.1302 166.172 93.3203C166.018 93.5078 165.935 93.7344 165.922 94H164.984C165 93.5807 165.126 93.2135 165.363 92.8984C165.6 92.5807 165.91 92.3333 166.293 92.1562C166.678 91.9792 167.102 91.8906 167.563 91.8906C168.057 91.8906 168.482 91.9909 168.836 92.1914C169.19 92.3893 169.462 92.651 169.652 92.9766C169.842 93.3021 169.938 93.6536 169.938 94.0313C169.938 94.4818 169.819 94.8659 169.582 95.1836C169.348 95.5013 169.029 95.7214 168.625 95.8438V95.9062C169.13 95.9896 169.525 96.2044 169.809 96.5508C170.092 96.8945 170.234 97.3203 170.234 97.8281C170.234 98.263 170.116 98.6536 169.879 99C169.645 99.3437 169.324 99.6146 168.918 99.8125C168.512 100.01 168.049 100.109 167.531 100.109ZM172.272 100.063C172.08 100.063 171.914 99.9935 171.776 99.8555C171.638 99.7174 171.569 99.5521 171.569 99.3594C171.569 99.1667 171.638 99.0013 171.776 98.8633C171.914 98.7253 172.08 98.6562 172.272 98.6562C172.465 98.6562 172.631 98.7253 172.769 98.8633C172.907 99.0013 172.976 99.1667 172.976 99.3594C172.976 99.487 172.943 99.6042 172.878 99.7109C172.815 99.8177 172.731 99.9036 172.624 99.9687C172.52 100.031 172.403 100.063 172.272 100.063ZM177.017 100.109C176.501 100.109 176.041 100.021 175.638 99.8437C175.237 99.6667 174.918 99.4206 174.681 99.1055C174.446 98.7878 174.319 98.4193 174.298 98H175.282C175.303 98.2578 175.392 98.4805 175.548 98.668C175.704 98.8529 175.909 98.9961 176.161 99.0977C176.414 99.1992 176.694 99.25 177.001 99.25C177.345 99.25 177.649 99.1901 177.915 99.0703C178.181 98.9505 178.389 98.7839 178.54 98.5703C178.691 98.3568 178.767 98.1094 178.767 97.8281C178.767 97.5339 178.694 97.2747 178.548 97.0508C178.402 96.8242 178.188 96.6471 177.907 96.5195C177.626 96.3919 177.282 96.3281 176.876 96.3281H176.235V95.4687H176.876C177.194 95.4687 177.472 95.4115 177.712 95.2969C177.954 95.1823 178.143 95.0208 178.278 94.8125C178.416 94.6042 178.485 94.3594 178.485 94.0781C178.485 93.8073 178.425 93.5716 178.306 93.3711C178.186 93.1706 178.017 93.0143 177.798 92.9023C177.582 92.7904 177.326 92.7344 177.032 92.7344C176.756 92.7344 176.496 92.7852 176.251 92.8867C176.009 92.9857 175.811 93.1302 175.657 93.3203C175.504 93.5078 175.42 93.7344 175.407 94H174.47C174.485 93.5807 174.612 93.2135 174.849 92.8984C175.086 92.5807 175.396 92.3333 175.778 92.1562C176.164 91.9792 176.587 91.8906 177.048 91.8906C177.543 91.8906 177.967 91.9909 178.321 92.1914C178.675 92.3893 178.948 92.651 179.138 92.9766C179.328 93.3021 179.423 93.6536 179.423 94.0313C179.423 94.4818 179.304 94.8659 179.067 95.1836C178.833 95.5013 178.514 95.7214 178.11 95.8438V95.9062C178.616 95.9896 179.01 96.2044 179.294 96.5508C179.578 96.8945 179.72 97.3203 179.72 97.8281C179.72 98.263 179.601 98.6536 179.364 99C179.13 99.3437 178.81 99.6146 178.403 99.8125C177.997 100.01 177.535 100.109 177.017 100.109ZM181.786 92L184.161 98.7344H184.255L186.63 92H187.646L184.708 100H183.708L180.771 92H181.786Z" fill="black"/>
<path d="M167.328 110.109C166.87 110.109 166.457 110.018 166.09 109.836C165.723 109.654 165.428 109.404 165.207 109.086C164.986 108.768 164.865 108.406 164.844 108H165.781C165.818 108.362 165.982 108.661 166.273 108.898C166.568 109.133 166.919 109.25 167.328 109.25C167.656 109.25 167.948 109.173 168.203 109.02C168.461 108.866 168.663 108.655 168.809 108.387C168.957 108.116 169.031 107.81 169.031 107.469C169.031 107.12 168.954 106.809 168.801 106.535C168.65 106.259 168.441 106.042 168.176 105.883C167.91 105.724 167.607 105.643 167.266 105.641C167.021 105.638 166.77 105.676 166.512 105.754C166.254 105.829 166.042 105.927 165.875 106.047L164.969 105.937L165.453 102H169.609V102.859H166.266L165.984 105.219H166.031C166.195 105.089 166.401 104.98 166.648 104.895C166.896 104.809 167.154 104.766 167.422 104.766C167.911 104.766 168.348 104.883 168.73 105.117C169.116 105.349 169.418 105.667 169.637 106.07C169.858 106.474 169.969 106.935 169.969 107.453C169.969 107.964 169.854 108.419 169.625 108.82C169.398 109.219 169.086 109.534 168.688 109.766C168.289 109.995 167.836 110.109 167.328 110.109ZM171.989 102L174.364 108.734H174.458L176.833 102H177.849L174.911 110H173.911L170.974 102H171.989Z" fill="black"/>
<path d="M170.438 114.5C170.352 114.237 170.238 114.001 170.098 113.793C169.96 113.582 169.794 113.402 169.602 113.254C169.411 113.105 169.195 112.992 168.953 112.914C168.711 112.836 168.445 112.797 168.156 112.797C167.682 112.797 167.251 112.919 166.863 113.164C166.475 113.409 166.167 113.77 165.938 114.246C165.708 114.723 165.594 115.307 165.594 116C165.594 116.693 165.71 117.277 165.941 117.754C166.173 118.23 166.487 118.591 166.883 118.836C167.279 119.081 167.724 119.203 168.219 119.203C168.677 119.203 169.081 119.105 169.43 118.91C169.781 118.712 170.055 118.434 170.25 118.074C170.448 117.712 170.547 117.286 170.547 116.797L170.844 116.859H168.438V116H171.484V116.859C171.484 117.518 171.344 118.091 171.063 118.578C170.784 119.065 170.398 119.443 169.906 119.711C169.417 119.977 168.854 120.109 168.219 120.109C167.51 120.109 166.888 119.943 166.352 119.609C165.818 119.276 165.401 118.802 165.102 118.187C164.805 117.573 164.656 116.844 164.656 116C164.656 115.367 164.741 114.798 164.91 114.293C165.082 113.785 165.324 113.353 165.637 112.996C165.949 112.639 166.319 112.366 166.746 112.176C167.173 111.986 167.643 111.891 168.156 111.891C168.578 111.891 168.971 111.954 169.336 112.082C169.703 112.207 170.03 112.385 170.316 112.617C170.605 112.846 170.846 113.121 171.039 113.441C171.232 113.759 171.365 114.112 171.438 114.5H170.438ZM179.487 112V120H178.55L174.19 113.719H174.112V120H173.144V112H174.081L178.456 118.297H178.534V112H179.487ZM183.895 120H181.426V112H184.004C184.78 112 185.444 112.16 185.996 112.48C186.548 112.798 186.971 113.255 187.266 113.852C187.56 114.445 187.707 115.156 187.707 115.984C187.707 116.818 187.559 117.535 187.262 118.137C186.965 118.736 186.533 119.197 185.965 119.52C185.397 119.84 184.707 120 183.895 120ZM182.395 119.141H183.832C184.493 119.141 185.042 119.013 185.477 118.758C185.911 118.503 186.236 118.139 186.449 117.668C186.663 117.197 186.77 116.635 186.77 115.984C186.77 115.339 186.664 114.783 186.453 114.316C186.242 113.848 185.927 113.488 185.508 113.238C185.089 112.986 184.566 112.859 183.941 112.859H182.395V119.141Z" fill="black"/>
<path d="M170.438 124.5C170.352 124.237 170.238 124.001 170.098 123.793C169.96 123.582 169.794 123.402 169.602 123.254C169.411 123.105 169.195 122.992 168.953 122.914C168.711 122.836 168.445 122.797 168.156 122.797C167.682 122.797 167.251 122.919 166.863 123.164C166.475 123.409 166.167 123.77 165.938 124.246C165.708 124.723 165.594 125.307 165.594 126C165.594 126.693 165.71 127.277 165.941 127.754C166.173 128.23 166.487 128.591 166.883 128.836C167.279 129.081 167.724 129.203 168.219 129.203C168.677 129.203 169.081 129.105 169.43 128.91C169.781 128.712 170.055 128.434 170.25 128.074C170.448 127.712 170.547 127.286 170.547 126.797L170.844 126.859H168.438V126H171.484V126.859C171.484 127.518 171.344 128.091 171.063 128.578C170.784 129.065 170.398 129.443 169.906 129.711C169.417 129.977 168.854 130.109 168.219 130.109C167.51 130.109 166.888 129.943 166.352 129.609C165.818 129.276 165.401 128.802 165.102 128.187C164.805 127.573 164.656 126.844 164.656 126C164.656 125.367 164.741 124.798 164.91 124.293C165.082 123.785 165.324 123.353 165.637 122.996C165.949 122.639 166.319 122.366 166.746 122.176C167.173 121.986 167.643 121.891 168.156 121.891C168.578 121.891 168.971 121.954 169.336 122.082C169.703 122.207 170.03 122.385 170.316 122.617C170.605 122.846 170.846 123.121 171.039 123.441C171.232 123.759 171.365 124.112 171.438 124.5H170.438ZM179.487 122V130H178.55L174.19 123.719H174.112V130H173.144V122H174.081L178.456 128.297H178.534V122H179.487ZM183.895 130H181.426V122H184.004C184.78 122 185.444 122.16 185.996 122.48C186.548 122.798 186.971 123.255 187.266 123.852C187.56 124.445 187.707 125.156 187.707 125.984C187.707 126.818 187.559 127.535 187.262 128.137C186.965 128.736 186.533 129.197 185.965 129.52C185.397 129.84 184.707 130 183.895 130ZM182.395 129.141H183.832C184.493 129.141 185.042 129.013 185.477 128.758C185.911 128.503 186.236 128.139 186.449 127.668C186.663 127.197 186.77 126.635 186.77 125.984C186.77 125.339 186.664 124.783 186.453 124.316C186.242 123.848 185.927 123.488 185.508 123.238C185.089 122.986 184.566 122.859 183.941 122.859H182.395V129.141Z" fill="black"/>
<path d="M165.297 132L167.672 138.734H167.766L170.141 132H171.156L168.219 140H167.219L164.281 132H165.297ZM172.277 140V134H173.199V140H172.277ZM172.746 133C172.566 133 172.411 132.939 172.281 132.816C172.154 132.694 172.09 132.547 172.09 132.375C172.09 132.203 172.154 132.056 172.281 131.934C172.411 131.811 172.566 131.75 172.746 131.75C172.926 131.75 173.079 131.811 173.207 131.934C173.337 132.056 173.402 132.203 173.402 132.375C173.402 132.547 173.337 132.694 173.207 132.816C173.079 132.939 172.926 133 172.746 133ZM175.81 136.391V140H174.888V134H175.778V134.937H175.856C175.997 134.633 176.211 134.388 176.497 134.203C176.784 134.016 177.153 133.922 177.606 133.922C178.013 133.922 178.368 134.005 178.673 134.172C178.978 134.336 179.215 134.586 179.384 134.922C179.553 135.255 179.638 135.677 179.638 136.188V140H178.716V136.25C178.716 135.779 178.593 135.411 178.349 135.148C178.104 134.883 177.768 134.75 177.341 134.75C177.047 134.75 176.784 134.814 176.552 134.941C176.323 135.069 176.142 135.255 176.009 135.5C175.876 135.745 175.81 136.042 175.81 136.391Z" fill="black"/>
<path d="M165.297 160H164.281L167.219 152H168.219L171.156 160H170.141L167.75 153.266H167.688L165.297 160ZM165.672 156.875H169.766V157.734H165.672V156.875ZM174.871 160.109C174.283 160.109 173.781 159.949 173.367 159.629C172.953 159.306 172.637 158.839 172.418 158.227C172.199 157.612 172.09 156.87 172.09 156C172.09 155.135 172.199 154.397 172.418 153.785C172.639 153.171 172.957 152.702 173.371 152.379C173.788 152.053 174.288 151.891 174.871 151.891C175.454 151.891 175.953 152.053 176.367 152.379C176.784 152.702 177.102 153.171 177.32 153.785C177.542 154.397 177.652 155.135 177.652 156C177.652 156.87 177.543 157.612 177.324 158.227C177.105 158.839 176.789 159.306 176.375 159.629C175.961 159.949 175.46 160.109 174.871 160.109ZM174.871 159.25C175.454 159.25 175.908 158.969 176.23 158.406C176.553 157.844 176.715 157.042 176.715 156C176.715 155.307 176.641 154.717 176.492 154.23C176.346 153.743 176.135 153.372 175.859 153.117C175.586 152.862 175.257 152.734 174.871 152.734C174.293 152.734 173.841 153.02 173.516 153.59C173.19 154.158 173.027 154.961 173.027 156C173.027 156.693 173.1 157.281 173.246 157.766C173.392 158.25 173.602 158.618 173.875 158.871C174.151 159.124 174.483 159.25 174.871 159.25Z" fill="black"/>
<path d="M165.297 170H164.281L167.219 162H168.219L171.156 170H170.141L167.75 163.266H167.688L165.297 170ZM165.672 166.875H169.766V167.734H165.672V166.875ZM174.698 162V170H173.729V163.016H173.683L171.729 164.312V163.328L173.729 162H174.698Z" fill="black"/>
<path d="M165.297 180H164.281L167.219 172H168.219L171.156 180H170.141L167.75 173.266H167.688L165.297 180ZM165.672 176.875H169.766V177.734H165.672V176.875ZM172.262 180V179.297L174.902 176.406C175.212 176.068 175.467 175.773 175.668 175.523C175.868 175.271 176.017 175.034 176.113 174.812C176.212 174.589 176.262 174.354 176.262 174.109C176.262 173.828 176.194 173.585 176.059 173.379C175.926 173.173 175.743 173.014 175.512 172.902C175.28 172.79 175.02 172.734 174.73 172.734C174.423 172.734 174.155 172.798 173.926 172.926C173.699 173.051 173.523 173.227 173.398 173.453C173.276 173.68 173.215 173.945 173.215 174.25H172.293C172.293 173.781 172.401 173.37 172.617 173.016C172.833 172.661 173.128 172.385 173.5 172.187C173.875 171.99 174.296 171.891 174.762 171.891C175.23 171.891 175.646 171.99 176.008 172.187C176.37 172.385 176.654 172.652 176.859 172.988C177.065 173.324 177.168 173.698 177.168 174.109C177.168 174.404 177.115 174.691 177.008 174.973C176.904 175.251 176.721 175.562 176.461 175.906C176.203 176.247 175.845 176.664 175.387 177.156L173.59 179.078V179.141H177.309V180H172.262Z" fill="black"/>
<path d="M165.297 190H164.281L167.219 182H168.219L171.156 190H170.141L167.75 183.266H167.688L165.297 190ZM165.672 186.875H169.766V187.734H165.672V186.875ZM174.965 190.109C174.449 190.109 173.99 190.021 173.586 189.844C173.185 189.667 172.866 189.421 172.629 189.105C172.395 188.788 172.267 188.419 172.246 188H173.23C173.251 188.258 173.34 188.48 173.496 188.668C173.652 188.853 173.857 188.996 174.109 189.098C174.362 189.199 174.642 189.25 174.949 189.25C175.293 189.25 175.598 189.19 175.863 189.07C176.129 188.951 176.337 188.784 176.488 188.57C176.639 188.357 176.715 188.109 176.715 187.828C176.715 187.534 176.642 187.275 176.496 187.051C176.35 186.824 176.137 186.647 175.855 186.52C175.574 186.392 175.23 186.328 174.824 186.328H174.184V185.469H174.824C175.142 185.469 175.421 185.411 175.66 185.297C175.902 185.182 176.091 185.021 176.227 184.812C176.365 184.604 176.434 184.359 176.434 184.078C176.434 183.807 176.374 183.572 176.254 183.371C176.134 183.171 175.965 183.014 175.746 182.902C175.53 182.79 175.275 182.734 174.98 182.734C174.704 182.734 174.444 182.785 174.199 182.887C173.957 182.986 173.759 183.13 173.605 183.32C173.452 183.508 173.368 183.734 173.355 184H172.418C172.434 183.581 172.56 183.214 172.797 182.898C173.034 182.581 173.344 182.333 173.727 182.156C174.112 181.979 174.535 181.891 174.996 181.891C175.491 181.891 175.915 181.991 176.27 182.191C176.624 182.389 176.896 182.651 177.086 182.977C177.276 183.302 177.371 183.654 177.371 184.031C177.371 184.482 177.253 184.866 177.016 185.184C176.781 185.501 176.462 185.721 176.059 185.844V185.906C176.564 185.99 176.958 186.204 177.242 186.551C177.526 186.895 177.668 187.32 177.668 187.828C177.668 188.263 177.549 188.654 177.313 189C177.078 189.344 176.758 189.615 176.352 189.812C175.945 190.01 175.483 190.109 174.965 190.109Z" fill="black"/>
<path d="M165.297 200H164.281L167.219 192H168.219L171.156 200H170.141L167.75 193.266H167.688L165.297 200ZM165.672 196.875H169.766V197.734H165.672V196.875ZM172.074 198.359V197.562L175.59 192H176.168V193.234H175.777L173.121 197.437V197.5H177.855V198.359H172.074ZM175.84 200V198.117V197.746V192H176.762V200H175.84Z" fill="black"/>
<path d="M165.297 210H164.281L167.219 202H168.219L171.156 210H170.141L167.75 203.266H167.688L165.297 210ZM165.672 206.875H169.766V207.734H165.672V206.875ZM174.762 210.109C174.303 210.109 173.891 210.018 173.523 209.836C173.156 209.654 172.862 209.404 172.641 209.086C172.419 208.768 172.298 208.406 172.277 208H173.215C173.251 208.362 173.415 208.661 173.707 208.898C174.001 209.133 174.353 209.25 174.762 209.25C175.09 209.25 175.382 209.173 175.637 209.02C175.895 208.866 176.096 208.655 176.242 208.387C176.391 208.116 176.465 207.81 176.465 207.469C176.465 207.12 176.388 206.809 176.234 206.535C176.083 206.259 175.875 206.042 175.609 205.883C175.344 205.724 175.04 205.643 174.699 205.641C174.454 205.638 174.203 205.676 173.945 205.754C173.688 205.829 173.475 205.927 173.309 206.047L172.402 205.937L172.887 202H177.043V202.859H173.699L173.418 205.219H173.465C173.629 205.089 173.835 204.98 174.082 204.895C174.329 204.809 174.587 204.766 174.855 204.766C175.345 204.766 175.781 204.883 176.164 205.117C176.549 205.349 176.852 205.667 177.07 206.07C177.292 206.474 177.402 206.935 177.402 207.453C177.402 207.964 177.288 208.419 177.059 208.82C176.832 209.219 176.52 209.534 176.121 209.766C175.723 209.995 175.27 210.109 174.762 210.109Z" fill="black"/>
<path d="M249.297 50H248.281L251.219 42H252.219L255.156 50H254.141L251.75 43.2656H251.688L249.297 50ZM249.672 46.875H253.766V47.7344H249.672V46.875ZM256.402 50V42H259.105C259.73 42 260.243 42.1068 260.645 42.3203C261.046 42.5312 261.342 42.8216 261.535 43.1914C261.728 43.5612 261.824 43.9818 261.824 44.4531C261.824 44.9245 261.728 45.3424 261.535 45.707C261.342 46.0716 261.047 46.3581 260.648 46.5664C260.25 46.7721 259.741 46.875 259.121 46.875H256.934V46H259.09C259.517 46 259.861 45.9375 260.121 45.8125C260.384 45.6875 260.574 45.5104 260.691 45.2812C260.811 45.0495 260.871 44.7734 260.871 44.4531C260.871 44.1328 260.811 43.8529 260.691 43.6133C260.572 43.3737 260.38 43.1888 260.117 43.0586C259.854 42.9258 259.507 42.8594 259.074 42.8594H257.371V50H256.402ZM260.168 46.4062L262.137 50H261.012L259.074 46.4062H260.168ZM263.438 50V42H268.267V42.8594H264.407V45.5625H268.017V46.4219H264.407V49.1406H268.329V50H263.438ZM270.013 50V42H274.81V42.8594H270.981V45.5625H274.45V46.4219H270.981V50H270.013Z" fill="black"/>
<path d="M257.438 54.5C257.352 54.237 257.238 54.0013 257.098 53.793C256.96 53.582 256.794 53.4023 256.602 53.2539C256.411 53.1055 256.195 52.9922 255.953 52.9141C255.711 52.8359 255.445 52.7969 255.156 52.7969C254.682 52.7969 254.251 52.9193 253.863 53.1641C253.475 53.4089 253.167 53.7695 252.938 54.2461C252.708 54.7227 252.594 55.3073 252.594 56C252.594 56.6927 252.71 57.2773 252.941 57.7539C253.173 58.2305 253.487 58.5911 253.883 58.8359C254.279 59.0807 254.724 59.2031 255.219 59.2031C255.677 59.2031 256.081 59.1055 256.43 58.9102C256.781 58.7122 257.055 58.4336 257.25 58.0742C257.448 57.7122 257.547 57.2865 257.547 56.7969L257.844 56.8594H255.438V56H258.484V56.8594C258.484 57.5182 258.344 58.0911 258.063 58.5781C257.784 59.0651 257.398 59.4427 256.906 59.7109C256.417 59.9766 255.854 60.1094 255.219 60.1094C254.51 60.1094 253.888 59.9427 253.352 59.6094C252.818 59.276 252.401 58.8021 252.102 58.1875C251.805 57.5729 251.656 56.8437 251.656 56C251.656 55.3672 251.741 54.7982 251.91 54.293C252.082 53.7852 252.324 53.3529 252.637 52.9961C252.949 52.6393 253.319 52.3659 253.746 52.1758C254.173 51.9857 254.643 51.8906 255.156 51.8906C255.578 51.8906 255.971 51.9544 256.336 52.082C256.703 52.207 257.03 52.3854 257.316 52.6172C257.605 52.8464 257.846 53.1211 258.039 53.4414C258.232 53.7591 258.365 54.112 258.438 54.5H257.438ZM266.487 52V60H265.55L261.19 53.7187H261.112V60H260.144V52H261.081L265.456 58.2969H265.534V52H266.487ZM270.895 60H268.426V52H271.004C271.78 52 272.444 52.1602 272.996 52.4805C273.548 52.7982 273.971 53.2552 274.266 53.8516C274.56 54.4453 274.707 55.1562 274.707 55.9844C274.707 56.8177 274.559 57.5352 274.262 58.1367C273.965 58.7357 273.533 59.1966 272.965 59.5195C272.397 59.8398 271.707 60 270.895 60ZM269.395 59.1406H270.832C271.493 59.1406 272.042 59.013 272.477 58.7578C272.911 58.5026 273.236 58.1393 273.449 57.668C273.663 57.1966 273.77 56.6354 273.77 55.9844C273.77 55.3385 273.664 54.7826 273.453 54.3164C273.242 53.8477 272.927 53.4883 272.508 53.2383C272.089 52.9857 271.566 52.8594 270.941 52.8594H269.395V59.1406Z" fill="black"/>
<path d="M258.438 70H255.969V62H258.547C259.323 62 259.987 62.1602 260.539 62.4805C261.091 62.7982 261.514 63.2552 261.809 63.8516C262.103 64.4453 262.25 65.1562 262.25 65.9844C262.25 66.8177 262.102 67.5352 261.805 68.1367C261.508 68.7357 261.076 69.1966 260.508 69.5195C259.94 69.8398 259.25 70 258.438 70ZM256.938 69.1406H258.375C259.036 69.1406 259.585 69.013 260.02 68.7578C260.454 68.5026 260.779 68.1393 260.992 67.668C261.206 67.1966 261.312 66.6354 261.312 65.9844C261.312 65.3385 261.207 64.7826 260.996 64.3164C260.785 63.8477 260.47 63.4883 260.051 63.2383C259.632 62.9857 259.109 62.8594 258.484 62.8594H256.938V69.1406ZM266.547 62V70H265.578V63.0156H265.531L263.578 64.3125V63.3281L265.578 62H266.547ZM271.551 70.1094C271.035 70.1094 270.576 70.0208 270.172 69.8437C269.771 69.6667 269.452 69.4206 269.215 69.1055C268.98 68.7878 268.853 68.4193 268.832 68H269.816C269.837 68.2578 269.926 68.4805 270.082 68.668C270.238 68.8529 270.443 68.9961 270.695 69.0977C270.948 69.1992 271.228 69.25 271.535 69.25C271.879 69.25 272.184 69.1901 272.449 69.0703C272.715 68.9505 272.923 68.7839 273.074 68.5703C273.225 68.3568 273.301 68.1094 273.301 67.8281C273.301 67.5339 273.228 67.2747 273.082 67.0508C272.936 66.8242 272.723 66.6471 272.441 66.5195C272.16 66.3919 271.816 66.3281 271.41 66.3281H270.77V65.4687H271.41C271.728 65.4687 272.007 65.4115 272.246 65.2969C272.488 65.1823 272.677 65.0208 272.813 64.8125C272.951 64.6042 273.02 64.3594 273.02 64.0781C273.02 63.8073 272.96 63.5716 272.84 63.3711C272.72 63.1706 272.551 63.0143 272.332 62.9023C272.116 62.7904 271.861 62.7344 271.566 62.7344C271.29 62.7344 271.03 62.7852 270.785 62.8867C270.543 62.9857 270.345 63.1302 270.191 63.3203C270.038 63.5078 269.954 63.7344 269.941 64H269.004C269.02 63.5807 269.146 63.2135 269.383 62.8984C269.62 62.5807 269.93 62.3333 270.313 62.1562C270.698 61.9792 271.121 61.8906 271.582 61.8906C272.077 61.8906 272.501 61.9909 272.855 62.1914C273.21 62.3893 273.482 62.651 273.672 62.9766C273.862 63.3021 273.957 63.6536 273.957 64.0313C273.957 64.4818 273.839 64.8659 273.602 65.1836C273.367 65.5013 273.048 65.7214 272.645 65.8438V65.9062C273.15 65.9896 273.544 66.2044 273.828 66.5508C274.112 66.8945 274.254 67.3203 274.254 67.8281C274.254 68.263 274.135 68.6536 273.898 69C273.664 69.3437 273.344 69.6146 272.938 69.8125C272.531 70.0104 272.069 70.1094 271.551 70.1094Z" fill="black"/>
<path d="M259.438 80H256.969V72H259.547C260.323 72 260.987 72.1602 261.539 72.4805C262.091 72.7982 262.514 73.2552 262.809 73.8516C263.103 74.4453 263.25 75.1562 263.25 75.9844C263.25 76.8177 263.102 77.5352 262.805 78.1367C262.508 78.7357 262.076 79.1966 261.508 79.5195C260.94 79.8398 260.25 80 259.438 80ZM257.938 79.1406H259.375C260.036 79.1406 260.585 79.013 261.02 78.7578C261.454 78.5026 261.779 78.1393 261.992 77.668C262.206 77.1966 262.312 76.6354 262.312 75.9844C262.312 75.3385 262.207 74.7826 261.996 74.3164C261.785 73.8477 261.47 73.4883 261.051 73.2383C260.632 72.9857 260.109 72.8594 259.484 72.8594H257.938V79.1406ZM267.547 72V80H266.578V73.0156H266.531L264.578 74.3125V73.3281L266.578 72H267.547ZM269.848 80V79.2969L272.488 76.4062C272.798 76.0677 273.053 75.7734 273.254 75.5234C273.454 75.2708 273.603 75.0339 273.699 74.8125C273.798 74.5885 273.848 74.3542 273.848 74.1094C273.848 73.8281 273.78 73.5846 273.645 73.3789C273.512 73.1732 273.329 73.0143 273.098 72.9023C272.866 72.7904 272.605 72.7344 272.316 72.7344C272.009 72.7344 271.741 72.7982 271.512 72.9258C271.285 73.0508 271.109 73.2266 270.984 73.4531C270.862 73.6797 270.801 73.9453 270.801 74.25H269.879C269.879 73.7812 269.987 73.3698 270.203 73.0156C270.419 72.6615 270.714 72.3854 271.086 72.1875C271.461 71.9896 271.882 71.8906 272.348 71.8906C272.816 71.8906 273.232 71.9896 273.594 72.1875C273.956 72.3854 274.24 72.6523 274.445 72.9883C274.651 73.3242 274.754 73.6979 274.754 74.1094C274.754 74.4036 274.701 74.6914 274.594 74.9727C274.49 75.2513 274.307 75.5625 274.047 75.9062C273.789 76.2474 273.431 76.6641 272.973 77.1562L271.176 79.0781V79.1406H274.895V80H269.848Z" fill="black"/>
<path d="M227.969 90V82H230.672C231.299 82 231.813 82.1133 232.211 82.3398C232.612 82.5638 232.909 82.8672 233.102 83.25C233.294 83.6328 233.391 84.0599 233.391 84.5312C233.391 85.0026 233.294 85.431 233.102 85.8164C232.911 86.2018 232.617 86.5091 232.219 86.7383C231.82 86.9648 231.31 87.0781 230.688 87.0781H228.75V86.2188H230.656C231.086 86.2188 231.431 86.1445 231.691 85.9961C231.952 85.8477 232.141 85.6471 232.258 85.3945C232.378 85.1393 232.438 84.8516 232.438 84.5312C232.438 84.2109 232.378 83.9245 232.258 83.6719C232.141 83.4193 231.951 83.2214 231.688 83.0781C231.424 82.9323 231.076 82.8594 230.641 82.8594H228.938V90H227.969ZM236.404 90L234.217 82H235.201L236.873 88.5156H236.951L238.654 82H239.748L241.451 88.5156H241.529L243.201 82H244.186L241.998 90H240.998L239.232 83.625H239.17L237.404 90H236.404ZM245.393 82H246.549L249.268 88.6406H249.361L252.08 82H253.236V90H252.33V83.9219H252.252L249.752 90H248.877L246.377 83.9219H246.299V90H245.393V82ZM260.741 90H258.272V82H260.851C261.627 82 262.291 82.1602 262.843 82.4805C263.395 82.7982 263.818 83.2552 264.112 83.8516C264.407 84.4453 264.554 85.1562 264.554 85.9844C264.554 86.8177 264.405 87.5352 264.108 88.1367C263.812 88.7357 263.379 89.1966 262.812 89.5195C262.244 89.8398 261.554 90 260.741 90ZM259.241 89.1406H260.679C261.34 89.1406 261.888 89.013 262.323 88.7578C262.758 88.5026 263.082 88.1393 263.296 87.668C263.509 87.1966 263.616 86.6354 263.616 85.9844C263.616 85.3385 263.511 84.7826 263.3 84.3164C263.089 83.8477 262.774 83.4883 262.354 83.2383C261.935 82.9857 261.413 82.8594 260.788 82.8594H259.241V89.1406ZM268.851 82V90H267.882V83.0156H267.835L265.882 84.3125V83.3281L267.882 82H268.851ZM273.964 82V90H272.995V83.0156H272.948L270.995 84.3125V83.3281L272.995 82H273.964Z" fill="black"/>
<path d="M225.969 100V92H228.672C229.299 92 229.813 92.1133 230.211 92.3398C230.612 92.5638 230.909 92.8672 231.102 93.25C231.294 93.6328 231.391 94.0599 231.391 94.5312C231.391 95.0026 231.294 95.431 231.102 95.8164C230.911 96.2018 230.617 96.5091 230.219 96.7383C229.82 96.9648 229.31 97.0781 228.688 97.0781H226.75V96.2188H228.656C229.086 96.2188 229.431 96.1445 229.691 95.9961C229.952 95.8477 230.141 95.6471 230.258 95.3945C230.378 95.1393 230.438 94.8516 230.438 94.5312C230.438 94.2109 230.378 93.9245 230.258 93.6719C230.141 93.4193 229.951 93.2214 229.688 93.0781C229.424 92.9323 229.076 92.8594 228.641 92.8594H226.938V100H225.969ZM234.404 100L232.217 92H233.201L234.873 98.5156H234.951L236.654 92H237.748L239.451 98.5156H239.529L241.201 92H242.186L239.998 100H238.998L237.232 93.625H237.17L235.404 100H234.404ZM243.393 92H244.549L247.268 98.6406H247.361L250.08 92H251.236V100H250.33V93.9219H250.252L247.752 100H246.877L244.377 93.9219H244.299V100H243.393V92ZM258.741 100H256.272V92H258.851C259.627 92 260.291 92.1602 260.843 92.4805C261.395 92.7982 261.818 93.2552 262.112 93.8516C262.407 94.4453 262.554 95.1562 262.554 95.9844C262.554 96.8177 262.405 97.5352 262.108 98.1367C261.812 98.7357 261.379 99.1966 260.812 99.5195C260.244 99.8398 259.554 100 258.741 100ZM257.241 99.1406H258.679C259.34 99.1406 259.888 99.013 260.323 98.7578C260.758 98.5026 261.082 98.1393 261.296 97.668C261.509 97.1966 261.616 96.6354 261.616 95.9844C261.616 95.3385 261.511 94.7826 261.3 94.3164C261.089 93.8477 260.774 93.4883 260.354 93.2383C259.935 92.9857 259.413 92.8594 258.788 92.8594H257.241V99.1406ZM266.851 92V100H265.882V93.0156H265.835L263.882 94.3125V93.3281L265.882 92H266.851ZM271.761 100.109C271.172 100.109 270.671 99.9492 270.257 99.6289C269.843 99.306 269.526 98.8385 269.308 98.2266C269.089 97.612 268.979 96.8698 268.979 96C268.979 95.1354 269.089 94.3971 269.308 93.7852C269.529 93.1706 269.847 92.7018 270.261 92.3789C270.677 92.0534 271.177 91.8906 271.761 91.8906C272.344 91.8906 272.843 92.0534 273.257 92.3789C273.674 92.7018 273.991 93.1706 274.21 93.7852C274.431 94.3971 274.542 95.1354 274.542 96C274.542 96.8698 274.433 97.612 274.214 98.2266C273.995 98.8385 273.679 99.306 273.265 99.6289C272.851 99.9492 272.349 100.109 271.761 100.109ZM271.761 99.25C272.344 99.25 272.797 98.9687 273.12 98.4062C273.443 97.8437 273.604 97.0417 273.604 96C273.604 95.3073 273.53 94.7174 273.382 94.2305C273.236 93.7435 273.025 93.3724 272.749 93.1172C272.476 92.862 272.146 92.7344 271.761 92.7344C271.183 92.7344 270.731 93.0195 270.405 93.5898C270.08 94.1576 269.917 94.9609 269.917 96C269.917 96.6927 269.99 97.2812 270.136 97.7656C270.282 98.25 270.491 98.6185 270.765 98.8711C271.041 99.1237 271.373 99.25 271.761 99.25Z" fill="black"/>
<path d="M224.969 110V102H227.672C228.299 102 228.813 102.113 229.211 102.34C229.612 102.564 229.909 102.867 230.102 103.25C230.294 103.633 230.391 104.06 230.391 104.531C230.391 105.003 230.294 105.431 230.102 105.816C229.911 106.202 229.617 106.509 229.219 106.738C228.82 106.965 228.31 107.078 227.688 107.078H225.75V106.219H227.656C228.086 106.219 228.431 106.145 228.691 105.996C228.952 105.848 229.141 105.647 229.258 105.395C229.378 105.139 229.438 104.852 229.438 104.531C229.438 104.211 229.378 103.924 229.258 103.672C229.141 103.419 228.951 103.221 228.688 103.078C228.424 102.932 228.076 102.859 227.641 102.859H225.938V110H224.969ZM233.404 110L231.217 102H232.201L233.873 108.516H233.951L235.654 102H236.748L238.451 108.516H238.529L240.201 102H241.186L238.998 110H237.998L236.232 103.625H236.17L234.404 110H233.404ZM242.393 102H243.549L246.268 108.641H246.361L249.08 102H250.236V110H249.33V103.922H249.252L246.752 110H245.877L243.377 103.922H243.299V110H242.393V102ZM263.929 110H261.46V102H264.038C264.814 102 265.478 102.16 266.03 102.48C266.582 102.798 267.006 103.255 267.3 103.852C267.594 104.445 267.741 105.156 267.741 105.984C267.741 106.818 267.593 107.535 267.296 108.137C266.999 108.736 266.567 109.197 265.999 109.52C265.431 109.84 264.741 110 263.929 110ZM262.429 109.141H263.866C264.528 109.141 265.076 109.013 265.511 108.758C265.946 108.503 266.27 108.139 266.483 107.668C266.697 107.197 266.804 106.635 266.804 105.984C266.804 105.339 266.698 104.783 266.487 104.316C266.276 103.848 265.961 103.488 265.542 103.238C265.123 102.986 264.601 102.859 263.976 102.859H262.429V109.141ZM271.772 101.891C272.101 101.893 272.429 101.956 272.757 102.078C273.085 102.201 273.384 102.404 273.655 102.687C273.926 102.969 274.144 103.353 274.308 103.84C274.472 104.327 274.554 104.937 274.554 105.672C274.554 106.383 274.486 107.014 274.351 107.566C274.218 108.116 274.025 108.579 273.772 108.957C273.522 109.335 273.218 109.621 272.858 109.816C272.502 110.012 272.098 110.109 271.647 110.109C271.2 110.109 270.8 110.021 270.448 109.844C270.099 109.664 269.813 109.415 269.589 109.098C269.368 108.777 269.226 108.406 269.163 107.984H270.116C270.202 108.352 270.373 108.655 270.628 108.895C270.886 109.132 271.226 109.25 271.647 109.25C272.265 109.25 272.752 108.98 273.108 108.441C273.468 107.902 273.647 107.141 273.647 106.156H273.585C273.439 106.375 273.266 106.564 273.065 106.723C272.865 106.882 272.642 107.004 272.397 107.09C272.153 107.176 271.892 107.219 271.616 107.219C271.158 107.219 270.737 107.105 270.354 106.879C269.974 106.65 269.67 106.336 269.44 105.937C269.214 105.536 269.101 105.078 269.101 104.562C269.101 104.073 269.21 103.625 269.429 103.219C269.65 102.81 269.96 102.484 270.358 102.242C270.759 102 271.231 101.883 271.772 101.891ZM271.772 102.75C271.444 102.75 271.149 102.832 270.886 102.996C270.625 103.158 270.418 103.376 270.265 103.652C270.114 103.926 270.038 104.229 270.038 104.562C270.038 104.896 270.111 105.199 270.257 105.473C270.405 105.743 270.607 105.96 270.862 106.121C271.12 106.28 271.413 106.359 271.741 106.359C271.989 106.359 272.219 106.311 272.433 106.215C272.646 106.116 272.832 105.982 272.991 105.812C273.153 105.641 273.279 105.447 273.37 105.23C273.461 105.012 273.507 104.784 273.507 104.547C273.507 104.234 273.431 103.941 273.28 103.668C273.132 103.395 272.926 103.173 272.663 103.004C272.403 102.835 272.106 102.75 271.772 102.75Z" fill="black"/>
<path d="M264.438 120H261.969V112H264.547C265.323 112 265.987 112.16 266.539 112.48C267.091 112.798 267.514 113.255 267.809 113.852C268.103 114.445 268.25 115.156 268.25 115.984C268.25 116.818 268.102 117.535 267.805 118.137C267.508 118.736 267.076 119.197 266.508 119.52C265.94 119.84 265.25 120 264.438 120ZM262.938 119.141H264.375C265.036 119.141 265.585 119.013 266.02 118.758C266.454 118.503 266.779 118.139 266.992 117.668C267.206 117.197 267.312 116.635 267.312 115.984C267.312 115.339 267.207 114.783 266.996 114.316C266.785 113.848 266.47 113.488 266.051 113.238C265.632 112.986 265.109 112.859 264.484 112.859H262.938V119.141ZM272.297 120.109C271.76 120.109 271.286 120.014 270.875 119.824C270.466 119.632 270.147 119.367 269.918 119.031C269.689 118.693 269.576 118.307 269.578 117.875C269.576 117.536 269.642 117.224 269.777 116.937C269.913 116.648 270.098 116.408 270.332 116.215C270.569 116.02 270.833 115.896 271.125 115.844V115.797C270.742 115.698 270.438 115.483 270.211 115.152C269.984 114.819 269.872 114.44 269.875 114.016C269.872 113.609 269.975 113.246 270.184 112.926C270.392 112.605 270.678 112.353 271.043 112.168C271.41 111.983 271.828 111.891 272.297 111.891C272.76 111.891 273.174 111.983 273.539 112.168C273.904 112.353 274.19 112.605 274.398 112.926C274.609 113.246 274.716 113.609 274.719 114.016C274.716 114.44 274.6 114.819 274.371 115.152C274.145 115.483 273.844 115.698 273.469 115.797V115.844C273.758 115.896 274.018 116.02 274.25 116.215C274.482 116.408 274.667 116.648 274.805 116.937C274.943 117.224 275.013 117.536 275.016 117.875C275.013 118.307 274.896 118.693 274.664 119.031C274.435 119.367 274.116 119.632 273.707 119.824C273.301 120.014 272.831 120.109 272.297 120.109ZM272.297 119.25C272.659 119.25 272.971 119.191 273.234 119.074C273.497 118.957 273.701 118.792 273.844 118.578C273.987 118.365 274.06 118.115 274.062 117.828C274.06 117.526 273.982 117.259 273.828 117.027C273.674 116.796 273.465 116.613 273.199 116.48C272.936 116.348 272.635 116.281 272.297 116.281C271.956 116.281 271.651 116.348 271.383 116.48C271.117 116.613 270.908 116.796 270.754 117.027C270.603 117.259 270.529 117.526 270.531 117.828C270.529 118.115 270.598 118.365 270.738 118.578C270.882 118.792 271.086 118.957 271.352 119.074C271.617 119.191 271.932 119.25 272.297 119.25ZM272.297 115.453C272.583 115.453 272.837 115.396 273.059 115.281C273.283 115.167 273.458 115.007 273.586 114.801C273.714 114.595 273.779 114.354 273.781 114.078C273.779 113.807 273.715 113.572 273.59 113.371C273.465 113.168 273.292 113.012 273.07 112.902C272.849 112.79 272.591 112.734 272.297 112.734C271.997 112.734 271.736 112.79 271.512 112.902C271.288 113.012 271.115 113.168 270.992 113.371C270.87 113.572 270.81 113.807 270.812 114.078C270.81 114.354 270.871 114.595 270.996 114.801C271.124 115.007 271.299 115.167 271.523 115.281C271.747 115.396 272.005 115.453 272.297 115.453Z" fill="black"/>
<path d="M264.438 140H261.969V132H264.547C265.323 132 265.987 132.16 266.539 132.48C267.091 132.798 267.514 133.255 267.809 133.852C268.103 134.445 268.25 135.156 268.25 135.984C268.25 136.818 268.102 137.535 267.805 138.137C267.508 138.736 267.076 139.197 266.508 139.52C265.94 139.84 265.25 140 264.438 140ZM262.938 139.141H264.375C265.036 139.141 265.585 139.013 266.02 138.758C266.454 138.503 266.779 138.139 266.992 137.668C267.206 137.197 267.312 136.635 267.312 135.984C267.312 135.339 267.207 134.783 266.996 134.316C266.785 133.848 266.47 133.488 266.051 133.238C265.632 132.986 265.109 132.859 264.484 132.859H262.938V139.141ZM269.984 140L273.563 132.922V132.859H269.438V132H274.563V132.906L271 140H269.984Z" fill="black"/>
<path d="M224.969 150V142H227.672C228.299 142 228.813 142.113 229.211 142.34C229.612 142.564 229.909 142.867 230.102 143.25C230.294 143.633 230.391 144.06 230.391 144.531C230.391 145.003 230.294 145.431 230.102 145.816C229.911 146.202 229.617 146.509 229.219 146.738C228.82 146.965 228.31 147.078 227.688 147.078H225.75V146.219H227.656C228.086 146.219 228.431 146.145 228.691 145.996C228.952 145.848 229.141 145.647 229.258 145.395C229.378 145.139 229.438 144.852 229.438 144.531C229.438 144.211 229.378 143.924 229.258 143.672C229.141 143.419 228.951 143.221 228.688 143.078C228.424 142.932 228.076 142.859 227.641 142.859H225.938V150H224.969ZM233.404 150L231.217 142H232.201L233.873 148.516H233.951L235.654 142H236.748L238.451 148.516H238.529L240.201 142H241.186L238.998 150H237.998L236.232 143.625H236.17L234.404 150H233.404ZM242.393 142H243.549L246.268 148.641H246.361L249.08 142H250.236V150H249.33V143.922H249.252L246.752 150H245.877L243.377 143.922H243.299V150H242.393V142ZM263.929 150H261.46V142H264.038C264.814 142 265.478 142.16 266.03 142.48C266.582 142.798 267.006 143.255 267.3 143.852C267.594 144.445 267.741 145.156 267.741 145.984C267.741 146.818 267.593 147.535 267.296 148.137C266.999 148.736 266.567 149.197 265.999 149.52C265.431 149.84 264.741 150 263.929 150ZM262.429 149.141H263.866C264.528 149.141 265.076 149.013 265.511 148.758C265.946 148.503 266.27 148.139 266.483 147.668C266.697 147.197 266.804 146.635 266.804 145.984C266.804 145.339 266.698 144.783 266.487 144.316C266.276 143.848 265.961 143.488 265.542 143.238C265.123 142.986 264.601 142.859 263.976 142.859H262.429V149.141ZM271.882 150.109C271.554 150.104 271.226 150.042 270.897 149.922C270.569 149.802 270.27 149.6 269.999 149.316C269.728 149.03 269.511 148.643 269.347 148.156C269.183 147.667 269.101 147.052 269.101 146.312C269.101 145.604 269.167 144.977 269.3 144.43C269.433 143.88 269.625 143.418 269.878 143.043C270.131 142.665 270.435 142.379 270.792 142.184C271.151 141.988 271.556 141.891 272.007 141.891C272.455 141.891 272.853 141.98 273.202 142.16C273.554 142.337 273.84 142.585 274.062 142.902C274.283 143.22 274.426 143.586 274.491 144H273.538C273.45 143.641 273.278 143.342 273.022 143.105C272.767 142.868 272.429 142.75 272.007 142.75C271.387 142.75 270.899 143.02 270.542 143.559C270.188 144.098 270.009 144.854 270.007 145.828H270.069C270.215 145.607 270.388 145.418 270.589 145.262C270.792 145.103 271.016 144.98 271.261 144.895C271.506 144.809 271.765 144.766 272.038 144.766C272.496 144.766 272.916 144.88 273.296 145.109C273.676 145.336 273.981 145.65 274.21 146.051C274.439 146.449 274.554 146.906 274.554 147.422C274.554 147.917 274.443 148.37 274.222 148.781C274 149.19 273.689 149.516 273.288 149.758C272.89 149.997 272.421 150.115 271.882 150.109ZM271.882 149.25C272.21 149.25 272.504 149.168 272.765 149.004C273.028 148.84 273.235 148.62 273.386 148.344C273.539 148.068 273.616 147.76 273.616 147.422C273.616 147.091 273.542 146.79 273.394 146.52C273.248 146.246 273.046 146.029 272.788 145.867C272.533 145.706 272.241 145.625 271.913 145.625C271.666 145.625 271.435 145.674 271.222 145.773C271.008 145.87 270.821 146.003 270.659 146.172C270.5 146.341 270.375 146.535 270.284 146.754C270.193 146.97 270.147 147.198 270.147 147.437C270.147 147.755 270.222 148.052 270.37 148.328C270.521 148.604 270.727 148.827 270.987 148.996C271.25 149.165 271.549 149.25 271.882 149.25Z" fill="black"/>
<path d="M224.969 160V152H227.672C228.299 152 228.813 152.113 229.211 152.34C229.612 152.564 229.909 152.867 230.102 153.25C230.294 153.633 230.391 154.06 230.391 154.531C230.391 155.003 230.294 155.431 230.102 155.816C229.911 156.202 229.617 156.509 229.219 156.738C228.82 156.965 228.31 157.078 227.688 157.078H225.75V156.219H227.656C228.086 156.219 228.431 156.145 228.691 155.996C228.952 155.848 229.141 155.647 229.258 155.395C229.378 155.139 229.438 154.852 229.438 154.531C229.438 154.211 229.378 153.924 229.258 153.672C229.141 153.419 228.951 153.221 228.688 153.078C228.424 152.932 228.076 152.859 227.641 152.859H225.938V160H224.969ZM233.404 160L231.217 152H232.201L233.873 158.516H233.951L235.654 152H236.748L238.451 158.516H238.529L240.201 152H241.186L238.998 160H237.998L236.232 153.625H236.17L234.404 160H233.404ZM242.393 152H243.549L246.268 158.641H246.361L249.08 152H250.236V160H249.33V153.922H249.252L246.752 160H245.877L243.377 153.922H243.299V160H242.393V152ZM263.929 160H261.46V152H264.038C264.814 152 265.478 152.16 266.03 152.48C266.582 152.798 267.006 153.255 267.3 153.852C267.594 154.445 267.741 155.156 267.741 155.984C267.741 156.818 267.593 157.535 267.296 158.137C266.999 158.736 266.567 159.197 265.999 159.52C265.431 159.84 264.741 160 263.929 160ZM262.429 159.141H263.866C264.528 159.141 265.076 159.013 265.511 158.758C265.946 158.503 266.27 158.139 266.483 157.668C266.697 157.197 266.804 156.635 266.804 155.984C266.804 155.339 266.698 154.783 266.487 154.316C266.276 153.848 265.961 153.488 265.542 153.238C265.123 152.986 264.601 152.859 263.976 152.859H262.429V159.141ZM271.726 160.109C271.267 160.109 270.854 160.018 270.487 159.836C270.12 159.654 269.826 159.404 269.604 159.086C269.383 158.768 269.262 158.406 269.241 158H270.179C270.215 158.362 270.379 158.661 270.671 158.898C270.965 159.133 271.317 159.25 271.726 159.25C272.054 159.25 272.345 159.173 272.601 159.02C272.858 158.866 273.06 158.655 273.206 158.387C273.354 158.116 273.429 157.81 273.429 157.469C273.429 157.12 273.352 156.809 273.198 156.535C273.047 156.259 272.839 156.042 272.573 155.883C272.308 155.724 272.004 155.643 271.663 155.641C271.418 155.638 271.167 155.676 270.909 155.754C270.651 155.829 270.439 155.927 270.272 156.047L269.366 155.937L269.851 152H274.007V152.859H270.663L270.382 155.219H270.429C270.593 155.089 270.799 154.98 271.046 154.895C271.293 154.809 271.551 154.766 271.819 154.766C272.309 154.766 272.745 154.883 273.128 155.117C273.513 155.349 273.815 155.667 274.034 156.07C274.256 156.474 274.366 156.935 274.366 157.453C274.366 157.964 274.252 158.419 274.022 158.82C273.796 159.219 273.483 159.534 273.085 159.766C272.687 159.995 272.233 160.109 271.726 160.109Z" fill="black"/>
<path d="M264.438 170H261.969V162H264.547C265.323 162 265.987 162.16 266.539 162.48C267.091 162.798 267.514 163.255 267.809 163.852C268.103 164.445 268.25 165.156 268.25 165.984C268.25 166.818 268.102 167.535 267.805 168.137C267.508 168.736 267.076 169.197 266.508 169.52C265.94 169.84 265.25 170 264.438 170ZM262.938 169.141H264.375C265.036 169.141 265.585 169.013 266.02 168.758C266.454 168.503 266.779 168.139 266.992 167.668C267.206 167.197 267.312 166.635 267.312 165.984C267.312 165.339 267.207 164.783 266.996 164.316C266.785 163.848 266.47 163.488 266.051 163.238C265.632 162.986 265.109 162.859 264.484 162.859H262.938V169.141ZM269.547 168.359V167.562L273.062 162H273.641V163.234H273.25L270.594 167.437V167.5H275.328V168.359H269.547ZM273.313 170V168.117V167.746V162H274.234V170H273.313Z" fill="black"/>
<path d="M224.969 180V172H227.672C228.299 172 228.813 172.113 229.211 172.34C229.612 172.564 229.909 172.867 230.102 173.25C230.294 173.633 230.391 174.06 230.391 174.531C230.391 175.003 230.294 175.431 230.102 175.816C229.911 176.202 229.617 176.509 229.219 176.738C228.82 176.965 228.31 177.078 227.688 177.078H225.75V176.219H227.656C228.086 176.219 228.431 176.145 228.691 175.996C228.952 175.848 229.141 175.647 229.258 175.395C229.378 175.139 229.438 174.852 229.438 174.531C229.438 174.211 229.378 173.924 229.258 173.672C229.141 173.419 228.951 173.221 228.688 173.078C228.424 172.932 228.076 172.859 227.641 172.859H225.938V180H224.969ZM233.404 180L231.217 172H232.201L233.873 178.516H233.951L235.654 172H236.748L238.451 178.516H238.529L240.201 172H241.186L238.998 180H237.998L236.232 173.625H236.17L234.404 180H233.404ZM242.393 172H243.549L246.268 178.641H246.361L249.08 172H250.236V180H249.33V173.922H249.252L246.752 180H245.877L243.377 173.922H243.299V180H242.393V172ZM263.929 180H261.46V172H264.038C264.814 172 265.478 172.16 266.03 172.48C266.582 172.798 267.006 173.255 267.3 173.852C267.594 174.445 267.741 175.156 267.741 175.984C267.741 176.818 267.593 177.535 267.296 178.137C266.999 178.736 266.567 179.197 265.999 179.52C265.431 179.84 264.741 180 263.929 180ZM262.429 179.141H263.866C264.528 179.141 265.076 179.013 265.511 178.758C265.946 178.503 266.27 178.139 266.483 177.668C266.697 177.197 266.804 176.635 266.804 175.984C266.804 175.339 266.698 174.783 266.487 174.316C266.276 173.848 265.961 173.488 265.542 173.238C265.123 172.986 264.601 172.859 263.976 172.859H262.429V179.141ZM271.929 180.109C271.413 180.109 270.953 180.021 270.55 179.844C270.149 179.667 269.83 179.421 269.593 179.105C269.358 178.788 269.231 178.419 269.21 178H270.194C270.215 178.258 270.304 178.48 270.46 178.668C270.616 178.853 270.821 178.996 271.073 179.098C271.326 179.199 271.606 179.25 271.913 179.25C272.257 179.25 272.562 179.19 272.827 179.07C273.093 178.951 273.301 178.784 273.452 178.57C273.603 178.357 273.679 178.109 273.679 177.828C273.679 177.534 273.606 177.275 273.46 177.051C273.314 176.824 273.101 176.647 272.819 176.52C272.538 176.392 272.194 176.328 271.788 176.328H271.147V175.469H271.788C272.106 175.469 272.384 175.411 272.624 175.297C272.866 175.182 273.055 175.021 273.19 174.812C273.328 174.604 273.397 174.359 273.397 174.078C273.397 173.807 273.338 173.572 273.218 173.371C273.098 173.171 272.929 173.014 272.71 172.902C272.494 172.79 272.239 172.734 271.944 172.734C271.668 172.734 271.408 172.785 271.163 172.887C270.921 172.986 270.723 173.13 270.569 173.32C270.416 173.508 270.332 173.734 270.319 174H269.382C269.397 173.581 269.524 173.214 269.761 172.898C269.998 172.581 270.308 172.333 270.69 172.156C271.076 171.979 271.499 171.891 271.96 171.891C272.455 171.891 272.879 171.991 273.233 172.191C273.588 172.389 273.86 172.651 274.05 172.977C274.24 173.302 274.335 173.654 274.335 174.031C274.335 174.482 274.216 174.866 273.979 175.184C273.745 175.501 273.426 175.721 273.022 175.844V175.906C273.528 175.99 273.922 176.204 274.206 176.551C274.49 176.895 274.632 177.32 274.632 177.828C274.632 178.263 274.513 178.654 274.276 179C274.042 179.344 273.722 179.615 273.315 179.812C272.909 180.01 272.447 180.109 271.929 180.109Z" fill="black"/>
<path d="M264.438 190H261.969V182H264.547C265.323 182 265.987 182.16 266.539 182.48C267.091 182.798 267.514 183.255 267.809 183.852C268.103 184.445 268.25 185.156 268.25 185.984C268.25 186.818 268.102 187.535 267.805 188.137C267.508 188.736 267.076 189.197 266.508 189.52C265.94 189.84 265.25 190 264.438 190ZM262.938 189.141H264.375C265.036 189.141 265.585 189.013 266.02 188.758C266.454 188.503 266.779 188.139 266.992 187.668C267.206 187.197 267.312 186.635 267.312 185.984C267.312 185.339 267.207 184.783 266.996 184.316C266.785 183.848 266.47 183.488 266.051 183.238C265.632 182.986 265.109 182.859 264.484 182.859H262.938V189.141ZM269.734 190V189.297L272.375 186.406C272.685 186.068 272.94 185.773 273.141 185.523C273.341 185.271 273.49 185.034 273.586 184.812C273.685 184.589 273.734 184.354 273.734 184.109C273.734 183.828 273.667 183.585 273.531 183.379C273.398 183.173 273.216 183.014 272.984 182.902C272.753 182.79 272.492 182.734 272.203 182.734C271.896 182.734 271.628 182.798 271.398 182.926C271.172 183.051 270.996 183.227 270.871 183.453C270.749 183.68 270.688 183.945 270.688 184.25H269.766C269.766 183.781 269.874 183.37 270.09 183.016C270.306 182.661 270.6 182.385 270.973 182.187C271.348 181.99 271.768 181.891 272.234 181.891C272.703 181.891 273.118 181.99 273.48 182.187C273.842 182.385 274.126 182.652 274.332 182.988C274.538 183.324 274.641 183.698 274.641 184.109C274.641 184.404 274.587 184.691 274.48 184.973C274.376 185.251 274.194 185.562 273.934 185.906C273.676 186.247 273.318 186.664 272.859 187.156L271.063 189.078V189.141H274.781V190H269.734Z" fill="black"/>
<path d="M239.531 192.859V192H245.531V192.859H243.016V200H242.047V192.859H239.531ZM247.495 192L249.558 195.328H249.62L251.683 192H252.823L250.308 196L252.823 200H251.683L249.62 196.734H249.558L247.495 200H246.354L248.933 196L246.354 192H247.495ZM265.834 200H263.365V192H265.943C266.719 192 267.383 192.16 267.936 192.48C268.488 192.798 268.911 193.255 269.205 193.852C269.499 194.445 269.646 195.156 269.646 195.984C269.646 196.818 269.498 197.535 269.201 198.137C268.904 198.736 268.472 199.197 267.904 199.52C267.337 199.84 266.646 200 265.834 200ZM264.334 199.141H265.771C266.433 199.141 266.981 199.013 267.416 198.758C267.851 198.503 268.175 198.139 268.389 197.668C268.602 197.197 268.709 196.635 268.709 195.984C268.709 195.339 268.604 194.783 268.393 194.316C268.182 193.848 267.867 193.488 267.447 193.238C267.028 192.986 266.506 192.859 265.881 192.859H264.334V199.141ZM273.943 192V200H272.975V193.016H272.928L270.975 194.312V193.328L272.975 192H273.943Z" fill="black"/>
<path d="M237.969 210V202H240.672C241.297 202 241.81 202.107 242.211 202.32C242.612 202.531 242.909 202.822 243.102 203.191C243.294 203.561 243.391 203.982 243.391 204.453C243.391 204.924 243.294 205.342 243.102 205.707C242.909 206.072 242.613 206.358 242.215 206.566C241.816 206.772 241.307 206.875 240.688 206.875H238.5V206H240.656C241.083 206 241.427 205.937 241.688 205.812C241.951 205.687 242.141 205.51 242.258 205.281C242.378 205.049 242.438 204.773 242.438 204.453C242.438 204.133 242.378 203.853 242.258 203.613C242.138 203.374 241.947 203.189 241.684 203.059C241.421 202.926 241.073 202.859 240.641 202.859H238.938V210H237.969ZM241.734 206.406L243.703 210H242.578L240.641 206.406H241.734ZM245.474 202L247.536 205.328H247.599L249.661 202H250.802L248.286 206L250.802 210H249.661L247.599 206.734H247.536L245.474 210H244.333L246.911 206L244.333 202H245.474ZM263.812 210H261.344V202H263.922C264.698 202 265.362 202.16 265.914 202.48C266.466 202.798 266.889 203.255 267.184 203.852C267.478 204.445 267.625 205.156 267.625 205.984C267.625 206.818 267.477 207.535 267.18 208.137C266.883 208.736 266.451 209.197 265.883 209.52C265.315 209.84 264.625 210 263.812 210ZM262.313 209.141H263.75C264.411 209.141 264.96 209.013 265.395 208.758C265.829 208.503 266.154 208.139 266.367 207.668C266.581 207.197 266.687 206.635 266.687 205.984C266.687 205.339 266.582 204.783 266.371 204.316C266.16 203.848 265.845 203.488 265.426 203.238C265.007 202.986 264.484 202.859 263.859 202.859H262.313V209.141ZM271.719 210.109C271.13 210.109 270.629 209.949 270.215 209.629C269.801 209.306 269.484 208.839 269.266 208.227C269.047 207.612 268.938 206.87 268.938 206C268.938 205.135 269.047 204.397 269.266 203.785C269.487 203.171 269.805 202.702 270.219 202.379C270.635 202.053 271.135 201.891 271.719 201.891C272.302 201.891 272.801 202.053 273.215 202.379C273.632 202.702 273.949 203.171 274.168 203.785C274.389 204.397 274.5 205.135 274.5 206C274.5 206.87 274.391 207.612 274.172 208.227C273.953 208.839 273.637 209.306 273.223 209.629C272.809 209.949 272.307 210.109 271.719 210.109ZM271.719 209.25C272.302 209.25 272.755 208.969 273.078 208.406C273.401 207.844 273.563 207.042 273.563 206C273.563 205.307 273.488 204.717 273.34 204.23C273.194 203.743 272.983 203.372 272.707 203.117C272.434 202.862 272.104 202.734 271.719 202.734C271.141 202.734 270.689 203.02 270.363 203.59C270.038 204.158 269.875 204.961 269.875 206C269.875 206.693 269.948 207.281 270.094 207.766C270.24 208.25 270.449 208.618 270.723 208.871C270.999 209.124 271.331 209.25 271.719 209.25Z" fill="black"/>
<path d="M220 40C222 49 235 49 235 40C235 31 222 31 220 40Z" stroke="black" stroke-width="2" stroke-linecap="square"/>
<path d="M220 40C218 31 205 31 205 40C205 49 218 49 220 40Z" stroke="black" stroke-width="2" stroke-linecap="square"/>
<path d="M226 40H230" stroke="black" stroke-width="2" stroke-linecap="square"/>
<path d="M228 42V38" stroke="black" stroke-width="2" stroke-linecap="square"/>
<path d="M214 40H210" stroke="black" stroke-width="2" stroke-linecap="square"/>
</g>
<defs>
<clipPath id="clip0_2_88">
<rect width="620" height="280" fill="white"/>
</clipPath>
</defs>
</svg>
